<?xml version="1.0" encoding="iso-8859-1"?>
<!-- Generator: Adobe Illustrator 19.0.0, SVG Export Plug-In . SVG Version: 6.00 Build 0)  -->
<svg xmlns="http://www.w3.org/2000/svg" xmlns:xlink="http://www.w3.org/1999/xlink" version="1.1" id="Layer_1" x="0px" y="0px" viewBox="0 0 469.333 469.333" style="enable-background:new 0 0 469.333 469.333;" xml:space="preserve">
<g>
	<g>
		<g>
			<circle cx="181.333" cy="202.667" r="10.667"/>
			<circle cx="181.333" cy="170.667" r="10.667"/>
			<circle cx="181.333" cy="234.667" r="10.667"/>
			<circle cx="213.333" cy="202.667" r="10.667"/>
			<circle cx="149.333" cy="202.667" r="10.667"/>
			<circle cx="181.333" cy="373.333" r="10.667"/>
			<circle cx="181.333" cy="341.333" r="10.667"/>
			<circle cx="181.333" cy="405.333" r="10.667"/>
			<circle cx="213.333" cy="373.333" r="10.667"/>
			<circle cx="149.333" cy="373.333" r="10.667"/>
			<path d="M448,368.521v-9.132c6.259-3.724,10.667-10.262,10.667-18.056s-4.408-14.332-10.667-18.056V160     c0-76.458-62.208-138.667-138.667-138.667c-64.987,0-119.895,44.592-134.499,106.969     c-73.355,3.029-135.859,56.714-150.134,128.616C10.574,260.24,0,272.875,0,288s10.574,27.76,24.701,31.082     C39.397,393.111,105.19,448,181.333,448c76.143,0,141.936-54.889,156.633-128.918c14.126-3.322,24.701-15.957,24.701-31.082     s-10.574-27.76-24.701-31.082c-13.699-69.005-71.783-121.361-141.294-128.143c13.869-50.443,59.225-86.108,112.661-86.108     c64.688,0,117.333,52.635,117.333,117.333v163.277C420.408,327.001,416,333.539,416,341.333s4.408,14.332,10.667,18.056v15.902     c0,4.51,2.833,8.542,7.104,10.052c8.5,3.021,14.229,11.063,14.229,19.99c0,11.76-9.563,21.333-21.333,21.333     c-11.771,0-21.333-9.573-21.333-21.333c0-5.896-4.771-10.667-10.667-10.667c-5.896,0-10.667,4.771-10.667,10.667     C384,428.865,403.146,448,426.667,448c23.521,0,42.667-19.135,42.667-42.667C469.333,390.021,461,376.042,448,368.521z      M181.333,426.667c-64.173,0-119.457-45.173-134.167-106.667H315.5C300.79,381.493,245.507,426.667,181.333,426.667z      M341.333,288c0,5.885-4.792,10.667-10.667,10.667H32c-5.875,0-10.667-4.781-10.667-10.667c0-5.885,4.792-10.667,10.667-10.667     h298.667C336.542,277.333,341.333,282.115,341.333,288z M315.5,256H47.167c14.71-61.493,69.993-106.667,134.167-106.667     C245.507,149.333,300.79,194.507,315.5,256z"/>
		</g>
	</g>
</g>
<g>
</g>
<g>
</g>
<g>
</g>
<g>
</g>
<g>
</g>
<g>
</g>
<g>
</g>
<g>
</g>
<g>
</g>
<g>
</g>
<g>
</g>
<g>
</g>
<g>
</g>
<g>
</g>
<g>
</g>
</svg>
