<?xml version="1.0" encoding="iso-8859-1"?>
<!-- Generator: Adobe Illustrator 19.0.0, SVG Export Plug-In . SVG Version: 6.00 Build 0)  -->
<svg xmlns="http://www.w3.org/2000/svg" xmlns:xlink="http://www.w3.org/1999/xlink" version="1.1" id="Layer_1" x="0px" y="0px" viewBox="0 0 512.002 512.002" style="enable-background:new 0 0 512.002 512.002;" xml:space="preserve">
<g>
	<g>
		<g>
			<path d="M399.907,329.252c-17.458-30.792-37.24-65.688-37.24-147.917c0-31.177-26.029-57.279-64-68.599V53.335     c0-3.563-1.781-6.896-4.75-8.875l-64-42.667c-3.25-2.188-7.479-2.385-10.948-0.531c-3.469,1.854-5.635,5.469-5.635,9.406v102.068     c-37.971,11.32-64,37.422-64,68.599c0,82.229-19.781,117.125-37.24,147.917c-13.76,24.271-26.76,47.198-26.76,86.75     c0,66.51,61.927,91.823,96,96l150.656-0.083c32.75-4.094,94.677-29.406,94.677-95.917     C426.668,376.45,413.668,353.523,399.907,329.252z M234.668,30.596l42.667,28.448v49.087c-6.879-0.941-14.003-1.462-21.333-1.462     s-14.454,0.521-21.333,1.462V30.596z M256.001,128.002c40.427,0,75.375,18.656,83.542,42.667H172.459     C180.626,146.658,215.574,128.002,256.001,128.002z M330.668,490.669l-148.01,0.083c-3.104-0.385-75.99-10.24-75.99-74.75     c0-33.927,10.583-52.594,23.979-76.229c17.06-30.083,37.884-67.695,39.678-147.771h171.352     c1.794,80.075,22.619,117.687,39.678,147.771c13.396,23.635,23.979,42.302,23.979,76.229     C405.334,480.21,332.428,490.356,330.668,490.669z"/>
			<path d="M186.334,448.158c-8.677-1.51-37-8.323-37-32.156c0-5.896-4.771-10.667-10.667-10.667     c-5.896,0-10.667,4.771-10.667,10.667c0,32.156,28.24,48.552,54.667,53.177c0.615,0.104,1.24,0.156,1.844,0.156     c5.083,0,9.594-3.646,10.5-8.833C196.022,454.7,192.147,449.179,186.334,448.158z"/>
		</g>
	</g>
</g>
<g>
</g>
<g>
</g>
<g>
</g>
<g>
</g>
<g>
</g>
<g>
</g>
<g>
</g>
<g>
</g>
<g>
</g>
<g>
</g>
<g>
</g>
<g>
</g>
<g>
</g>
<g>
</g>
<g>
</g>
</svg>
