<?xml version="1.0" encoding="iso-8859-1"?>
<!-- Generator: Adobe Illustrator 19.0.0, SVG Export Plug-In . SVG Version: 6.00 Build 0)  -->
<svg xmlns="http://www.w3.org/2000/svg" xmlns:xlink="http://www.w3.org/1999/xlink" version="1.1" id="Layer_1" x="0px" y="0px" viewBox="0 0 512 512" style="enable-background:new 0 0 512 512;" xml:space="preserve">
<g>
	<g>
		<g>
			<path d="M501.333,170.667h-15.087c1.374-7.503,2.38-15.121,3.029-22.866C502.38,143.796,512,131.733,512,117.333     c0-17.646-14.354-32-32-32H32c-17.646,0-32,14.354-32,32c0,14.4,9.62,26.462,22.725,30.467     c0.648,7.745,1.655,15.363,3.029,22.866H10.667C4.771,170.667,0,175.438,0,181.333C0,187.229,4.771,192,10.667,192h20.009     c19.415,68.961,69.142,124.617,133.827,152.039l-10.461,26.107c-3.125,7.865-4.708,16.115-4.708,24.521c0,17.646,14.354,32,32,32     h149.333c17.646,0,32-14.354,32-32c0-8.406-1.583-16.656-4.729-24.542l-10.443-26.085     C412.181,316.62,461.909,260.962,481.324,192h20.009c5.896,0,10.667-4.771,10.667-10.667     C512,175.438,507.229,170.667,501.333,170.667z M330.667,405.333H181.333c-5.875,0-10.667-4.781-10.667-10.667     c0-5.698,1.083-11.292,3.188-16.604l10.664-26.637c22.568,7.211,46.546,11.241,71.482,11.241c24.935,0,48.911-4.03,71.479-11.24     l10.646,26.615c2.125,5.333,3.208,10.927,3.208,16.625C341.333,400.552,336.542,405.333,330.667,405.333z M256,341.333     c-110.181,0-200.948-83.5-211.737-192h423.474C456.948,257.833,366.181,341.333,256,341.333z M480,128H32     c-5.875,0-10.667-4.781-10.667-10.667c0-5.885,4.792-10.667,10.667-10.667h448c5.875,0,10.667,4.781,10.667,10.667     C490.667,123.219,485.875,128,480,128z"/>
			<circle cx="149.333" cy="213.333" r="10.667"/>
			<circle cx="149.333" cy="181.333" r="10.667"/>
			<circle cx="149.333" cy="245.333" r="10.667"/>
			<circle cx="181.333" cy="213.333" r="10.667"/>
			<circle cx="117.333" cy="213.333" r="10.667"/>
			<circle cx="362.667" cy="213.333" r="10.667"/>
			<circle cx="362.667" cy="181.333" r="10.667"/>
			<circle cx="362.667" cy="245.333" r="10.667"/>
			<circle cx="394.667" cy="213.333" r="10.667"/>
			<circle cx="330.667" cy="213.333" r="10.667"/>
			<circle cx="256" cy="266.667" r="10.667"/>
			<circle cx="256" cy="234.667" r="10.667"/>
			<circle cx="256" cy="298.667" r="10.667"/>
			<circle cx="288" cy="266.667" r="10.667"/>
			<circle cx="224" cy="266.667" r="10.667"/>
		</g>
	</g>
</g>
<g>
</g>
<g>
</g>
<g>
</g>
<g>
</g>
<g>
</g>
<g>
</g>
<g>
</g>
<g>
</g>
<g>
</g>
<g>
</g>
<g>
</g>
<g>
</g>
<g>
</g>
<g>
</g>
<g>
</g>
</svg>
