<?xml version="1.0" encoding="iso-8859-1"?>
<!-- Generator: Adobe Illustrator 19.0.0, SVG Export Plug-In . SVG Version: 6.00 Build 0)  -->
<svg xmlns="http://www.w3.org/2000/svg" xmlns:xlink="http://www.w3.org/1999/xlink" version="1.1" id="Layer_1" x="0px" y="0px" viewBox="0 0 512.163 512.163" style="enable-background:new 0 0 512.163 512.163;" xml:space="preserve">
<g>
	<g>
		<path d="M512.159,170.623c-0.573-51.76-29.948-85.208-74.823-85.208c-24.365,0-44.292,14.083-50.76,35.896    c-4.818,16.23-0.931,33,9.867,46.128c-29.921,11.34-83.313,24.643-140.44,24.643c-39.635,0-73.521-19.75-103.406-37.177    c-24.688-14.396-46.01-26.823-67.26-26.823c-22.677,0-58.073,10.99-82.208,35.125c-3.052,3.052-3.969,7.635-2.313,11.625    c1.646,3.99,5.542,6.583,9.854,6.583c32.469,0,55.76,28.51,82.74,61.51c29.948,36.635,63.729,77.969,119.469,92.667    c1.833,12.281-0.927,27.156-23.063,41.99c-11.99,8.031-19.146,21.292-19.146,35.458v3.042c0,5.896,4.771,10.667,10.667,10.667    h149.333c5.896,0,10.667-4.771,10.667-10.667v-3.042c0-14.167-7.156-27.427-19.146-35.469    c-21.802-14.604-24.781-29.198-23.167-41.281c35.212-8.41,60.332-26.975,78.514-48.993    C495.327,255.871,512.491,200.761,512.159,170.623z M287.919,316.873c-4.063,0.781-7.302,3.833-8.313,7.844    c-7.208,28.354,3.125,52.094,30.708,70.573c3.792,2.552,6.635,6.104,8.229,10.125H193.461c1.594-4.021,4.438-7.573,8.229-10.115    c27.792-18.625,38.073-42.583,30.542-71.208c-1.021-3.885-4.125-6.865-8.042-7.719c-52.542-11.438-83.917-49.823-114.26-86.948    c-22.885-27.99-44.76-54.771-73.719-64.99c16.583-9.906,35.479-15.021,49.125-15.021c15.49,0,34.5,11.083,56.51,23.917    c30.635,17.865,68.75,40.083,114.156,40.083c61.969,0,114.948-14.063,144.594-24.771    C389.315,232.155,364.982,301.998,287.919,316.873z M396.272,259.359c16.275-29.546,23.826-60.264,28.428-79.288    c0,0,1.572-6.809,1.585-6.885c1.009-4.258-0.583-8.855-4.46-11.375c-15.458-10.063-17.781-24.385-14.802-34.438    c2.958-9.969,12.479-20.625,30.313-20.625c38.917,0,53.146,33.115,53.49,64.104C491.23,207.571,457.833,238.493,396.272,259.359z"/>
	</g>
</g>
<g>
</g>
<g>
</g>
<g>
</g>
<g>
</g>
<g>
</g>
<g>
</g>
<g>
</g>
<g>
</g>
<g>
</g>
<g>
</g>
<g>
</g>
<g>
</g>
<g>
</g>
<g>
</g>
<g>
</g>
</svg>
