<?xml version="1.0" encoding="iso-8859-1"?>
<!-- Generator: Adobe Illustrator 19.0.0, SVG Export Plug-In . SVG Version: 6.00 Build 0)  -->
<svg xmlns="http://www.w3.org/2000/svg" xmlns:xlink="http://www.w3.org/1999/xlink" version="1.1" id="Layer_1" x="0px" y="0px" viewBox="0 0 469.333 469.333" style="enable-background:new 0 0 469.333 469.333;" xml:space="preserve">
<g>
	<g>
		<g>
			<path d="M128,426.667h10.667c5.896,0,10.667-4.771,10.667-10.667c0-5.896-4.771-10.667-10.667-10.667H128     c-11.771,0-21.333-9.573-21.333-21.333v-10.667c0-5.896-4.771-10.667-10.667-10.667c-5.896,0-10.667,4.771-10.667,10.667V384     C85.333,407.531,104.479,426.667,128,426.667z"/>
			<path d="M448,128h-21.333v-10.667c0-41.167-33.5-74.667-74.667-74.667h-87.298c1.195-3.353,1.965-6.909,1.965-10.667     c0-17.646-14.354-32-32-32s-32,14.354-32,32c0,3.758,0.77,7.314,1.965,10.667h-87.298c-41.167,0-74.667,33.5-74.667,74.667V128     H21.333C9.562,128,0,137.573,0,149.333C0,166.01,7.979,181.969,21.333,192l21.333,15.996v186.671     c0,41.167,33.5,74.667,74.667,74.667H352c41.167,0,74.667-33.5,74.667-74.667V207.999L448.021,192     c13.333-10.031,21.313-25.99,21.313-42.667C469.333,137.573,459.771,128,448,128z M42.667,181.332l-8.521-6.395     c-8.021-6.021-12.812-15.594-12.812-25.604h21.333V181.332z M234.667,21.333c5.875,0,10.667,4.781,10.667,10.667     c0,5.885-4.792,10.667-10.667,10.667S224,37.885,224,32C224,26.115,228.792,21.333,234.667,21.333z M117.333,64H352     c25.763,0,47.299,18.353,52.255,42.667H65.078C70.034,82.353,91.57,64,117.333,64z M405.333,394.667     C405.333,424.073,381.417,448,352,448H117.333C87.917,448,64,424.073,64,394.667V128h341.333V394.667z M435.208,174.937     l-8.542,6.405v-32.009H448C448,159.344,443.208,168.917,435.208,174.937z"/>
		</g>
	</g>
</g>
<g>
</g>
<g>
</g>
<g>
</g>
<g>
</g>
<g>
</g>
<g>
</g>
<g>
</g>
<g>
</g>
<g>
</g>
<g>
</g>
<g>
</g>
<g>
</g>
<g>
</g>
<g>
</g>
<g>
</g>
</svg>
