<?xml version="1.0" encoding="iso-8859-1"?>
<!-- Generator: Adobe Illustrator 19.0.0, SVG Export Plug-In . SVG Version: 6.00 Build 0)  -->
<svg xmlns="http://www.w3.org/2000/svg" xmlns:xlink="http://www.w3.org/1999/xlink" version="1.1" id="Layer_1" x="0px" y="0px" viewBox="0 0 511.99 511.99" style="enable-background:new 0 0 511.99 511.99;" xml:space="preserve">
<g>
	<g>
		<g>
			<circle cx="213.328" cy="447.995" r="10.667"/>
			<path d="M219.745,66.146c-4.688-3.542-11.417-2.625-14.938,2.104c-8.375,11.146-12.813,24.427-12.813,38.417     c0,5.896,4.771,10.667,10.667,10.667c5.896,0,10.667-4.771,10.667-10.667c0-9.323,2.938-18.177,8.521-25.583     C225.391,76.375,224.453,69.687,219.745,66.146z"/>
			<path d="M292.245,147.187c1.917,1.448,4.167,2.146,6.417,2.146c3.229,0,6.438-1.469,8.521-4.25     c8.375-11.146,12.813-24.427,12.813-38.417c0-5.896-4.771-10.667-10.667-10.667c-5.896,0-10.667,4.771-10.667,10.667     c0,9.323-2.938,18.177-8.521,25.583C286.599,136.958,287.536,143.646,292.245,147.187z"/>
			<circle cx="255.995" cy="106.661" r="21.333"/>
			<path d="M255.995,213.333c58.812,0,106.667-47.854,106.667-106.667S314.807,0,255.995,0S149.328,47.854,149.328,106.667     c0,23.798,8.107,45.576,21.333,63.34v31.587c-1.057-0.948-2.244-1.711-3.271-2.698c-3.083-2.958-7.646-3.802-11.583-2.125     c-3.917,1.677-6.479,5.542-6.479,9.813v238.375c0,34.188,25.229,63.49,57.438,66.708c2.146,0.219,4.292,0.323,6.417,0.323     c15.875,0,31.292-5.854,43.083-16.521c13.375-12.125,21.063-29.417,21.063-47.469c0-14.198-4.625-27.667-13.396-38.948     c-3.625-4.646-7.937-12.052-7.937-20.948v-77.042c0-9.198,5.854-17.323,14.583-20.24l20.25-6.75     c17.438-5.813,29.167-22.073,29.167-40.469v-8.938c0-3.573-1.792-6.896-4.75-8.875s-6.75-2.333-10.021-0.969     c-22.417,9.365-47.013,11.622-70.562,7.586v-21.232C241.557,212.583,248.69,213.333,255.995,213.333z M297.661,250.083     c-2.021,6.375-6.979,11.562-13.583,13.76l-20.25,6.75c-17.437,5.813-29.167,22.073-29.167,40.469v77.042     c0,11.833,4.292,23.615,12.438,34.042c5.813,7.5,8.896,16.438,8.896,25.854c0,12.031-5.125,23.563-14.042,31.646     c-9.063,8.188-20.771,12.135-33.063,10.792c-21.438-2.135-38.229-22.115-38.229-45.479V229.135     C207.078,254.646,254.995,262.542,297.661,250.083z M191.995,216.915v-25.461c6.617,5.009,13.646,9.462,21.333,12.837v22.609     C205.919,224.298,198.844,220.842,191.995,216.915z M170.661,106.667c0-47.052,38.271-85.333,85.333-85.333     s85.333,38.281,85.333,85.333S303.057,192,255.995,192S170.661,153.719,170.661,106.667z"/>
		</g>
	</g>
</g>
<g>
</g>
<g>
</g>
<g>
</g>
<g>
</g>
<g>
</g>
<g>
</g>
<g>
</g>
<g>
</g>
<g>
</g>
<g>
</g>
<g>
</g>
<g>
</g>
<g>
</g>
<g>
</g>
<g>
</g>
</svg>
