<?xml version="1.0" encoding="iso-8859-1"?>
<!-- Generator: Adobe Illustrator 19.0.0, SVG Export Plug-In . SVG Version: 6.00 Build 0)  -->
<svg xmlns="http://www.w3.org/2000/svg" xmlns:xlink="http://www.w3.org/1999/xlink" version="1.1" id="Layer_1" x="0px" y="0px" viewBox="0 0 512 512" style="enable-background:new 0 0 512 512;" xml:space="preserve">
<g>
	<g>
		<path d="M360.303,385.23c-12.768-39.796-21.125-81.012-24.616-122.678l-4.108-49.311c17.216-0.496,31.087-14.574,31.087-31.908    c0-12.521-7.296-23.272-17.798-28.526c4.701-11.406,7.131-23.279,7.131-35.474c0-45.763-32.234-84.01-75.158-93.574    c0.099-0.833,0.491-1.566,0.491-2.426C277.333,9.573,267.771,0,256,0s-21.333,9.573-21.333,21.333    c0,0.859,0.392,1.592,0.491,2.426C192.234,33.323,160,71.57,160,117.333c0,12.195,2.431,24.068,7.132,35.474    c-10.503,5.254-17.798,16.005-17.798,28.526c0,17.333,13.871,31.411,31.087,31.908l-4.108,49.311    c-3.491,41.667-11.848,82.883-24.616,122.678C138.09,388.913,128,401.244,128,416c0,13.888,8.944,25.617,21.333,30.035V480    c0,17.646,14.354,32,32,32h149.333c17.646,0,32-14.354,32-32v-33.965C375.056,441.617,384,429.888,384,416    C384,401.244,373.91,388.913,360.303,385.23z M256,42.667c41.167,0,74.667,33.5,74.667,74.667c0,11.016-2.699,21.736-7.712,32    H189.046c-5.013-10.264-7.712-20.984-7.712-32C181.333,76.167,214.833,42.667,256,42.667z M170.667,181.333    c0-5.885,4.792-10.667,10.667-10.667h149.333c5.875,0,10.667,4.781,10.667,10.667c0,5.885-4.792,10.667-10.667,10.667H181.333    C175.458,192,170.667,187.219,170.667,181.333z M197.563,264.323l4.247-50.99h108.38l4.247,50.99    c3.385,40.595,11.344,80.736,23.22,119.677H174.342C186.219,345.059,194.177,304.918,197.563,264.323z M341.333,480    c0,5.885-4.792,10.667-10.667,10.667H181.333c-5.875,0-10.667-4.781-10.667-10.667v-32h170.667V480z M352,426.667H160    c-5.875,0-10.667-4.781-10.667-10.667c0-5.885,4.792-10.667,10.667-10.667h192c5.875,0,10.667,4.781,10.667,10.667    C362.667,421.885,357.875,426.667,352,426.667z"/>
	</g>
</g>
<g>
</g>
<g>
</g>
<g>
</g>
<g>
</g>
<g>
</g>
<g>
</g>
<g>
</g>
<g>
</g>
<g>
</g>
<g>
</g>
<g>
</g>
<g>
</g>
<g>
</g>
<g>
</g>
<g>
</g>
</svg>
