<?xml version="1.0" encoding="iso-8859-1"?>
<!-- Generator: Adobe Illustrator 19.0.0, SVG Export Plug-In . SVG Version: 6.00 Build 0)  -->
<svg xmlns="http://www.w3.org/2000/svg" xmlns:xlink="http://www.w3.org/1999/xlink" version="1.1" id="Layer_1" x="0px" y="0px" viewBox="0 0 512 512" style="enable-background:new 0 0 512 512;" xml:space="preserve">
<g>
	<g>
		<path d="M299.472,163.785c2.177-20.201,12.945-44.315,23.001-66.046c10.083-21.771,18.792-40.573,18.792-55.073    C341.265,22.979,331.953,0,305.703,0c-18.375,0-24.021,11.531-26.438,18.292c-0.104-0.156-0.208-0.302-0.313-0.448    C274.369,11.167,266.682,0,247.64,0c-24.063,0-36.417,28.021-41.229,42.677c-7.667,0.51-18.583,2.625-26.438,9.781    c-6.125,5.583-9.375,13.26-9.375,22.208c0,12.885,8.458,25.125,18.25,39.292c10.188,14.76,21.536,31.286,23.91,49.809    c-46.714,19.444-72.655,70.564-60.327,119.848c1.333,5.26,3.063,10.406,5.188,15.406l88.5,206.51    c1.688,3.927,5.542,6.469,9.813,6.469c4.271,0,8.125-2.542,9.812-6.458l88.625-206.615c2.125-4.99,3.854-10.156,5.208-15.51    C371.863,234.315,346.024,183.307,299.472,163.785z M206.39,101.833c-7.104-10.292-14.458-20.938-14.458-27.167    c0-3.75,1.271-5.396,2.375-6.406c4.479-4.135,14.854-4.677,19.188-4.302c5.479,0.375,10.104-3.052,11.333-8.177    c2.563-10.792,11.875-34.448,22.813-34.448c7.833,0,9.917,3.052,13.729,8.594c3.479,5.073,8.75,12.74,19.438,12.74    c12.854,0,16.479-10.948,18-15.615c1.792-5.396,1.896-5.719,6.896-5.719c12.375,0,14.229,13.365,14.229,21.333    c0,9.802-8.542,28.26-16.813,46.115c-10.499,22.667-22.167,47.934-25.116,71.219h-44.185    C230.548,136.849,217.316,117.651,206.39,101.833z M255.932,474.26L244.679,448h22.516L255.932,474.26z M338.849,278.302    c-1.042,4.177-2.396,8.26-4.104,12.208l-58.398,136.156h-40.807l-58.294-136.042c-1.708-3.958-3.063-8.042-4.125-12.292    c-9.875-39.385,11.167-80.427,48.917-95.469l3.85-1.531h0.423c-6.855,15.799-11.418,38.085-12.648,63.49    c-0.292,5.885,4.25,10.885,10.125,11.177c0.188,0.01,0.354,0.01,0.521,0.01c5.667,0,10.375-4.438,10.646-10.146    c1.395-28.581,7.448-53.418,15.538-64.531h10.905c6.189,8.48,11.411,25.258,14.036,45.99c0.688,5.385,5.271,9.323,10.563,9.323    c0.458,0,0.896-0.031,1.354-0.083c5.854-0.74,9.979-6.083,9.25-11.927c-1.409-11.061-4.6-28.607-10.967-43.302h0.716l3.605,1.427    C327.703,197.802,348.744,238.844,338.849,278.302z"/>
	</g>
</g>
<g>
</g>
<g>
</g>
<g>
</g>
<g>
</g>
<g>
</g>
<g>
</g>
<g>
</g>
<g>
</g>
<g>
</g>
<g>
</g>
<g>
</g>
<g>
</g>
<g>
</g>
<g>
</g>
<g>
</g>
</svg>
