<?xml version="1.0" encoding="iso-8859-1"?>
<!-- Generator: Adobe Illustrator 19.0.0, SVG Export Plug-In . SVG Version: 6.00 Build 0)  -->
<svg xmlns="http://www.w3.org/2000/svg" xmlns:xlink="http://www.w3.org/1999/xlink" version="1.1" id="Layer_1" x="0px" y="0px" viewBox="0 0 511.991 511.991" style="enable-background:new 0 0 511.991 511.991;" xml:space="preserve">
<g>
	<g>
		<g>
			<path d="M447.914,231.075c-0.896-18.021-9.479-34.958-23.542-46.458c-23.438-19.177-58.792-17.854-83.042,2.24v-42.833     c0-77.156-60.292-141.74-134.406-143.969c-38.073-1.031-73.677,12.74-100.823,39.083c-27.146,26.354-42.104,61.698-42.104,99.521     v330.667c0,23.531,19.135,42.667,42.667,42.667h192c23.531,0,42.667-19.135,42.667-42.667V412.95     c0-29.333,11.427-56.917,32.167-77.667l55.75-55.75C442.008,266.773,448.82,249.106,447.914,231.075z M319.997,469.325     c0,11.76-9.573,21.333-21.333,21.333h-192c-11.76,0-21.333-9.573-21.333-21.333v-21.333h234.667V469.325z M414.164,264.45     l-55.75,55.75c-24.771,24.781-38.417,57.719-38.417,92.75v13.708H85.331v-288c0-32.01,12.656-61.917,35.625-84.208     c22.094-21.438,50.979-33.125,81.677-33.125c1.208,0,2.427,0.021,3.646,0.063c62.708,1.875,113.719,56.896,113.719,122.635     v68.167c0,4.313,2.594,8.208,6.583,9.854c3.99,1.667,8.573,0.75,11.625-2.313l13.469-13.469     c16.51-16.521,42.521-18.781,59.198-5.125c9.542,7.802,15.125,18.813,15.74,31C427.206,244.158,422.674,255.939,414.164,264.45z"/>
			<circle cx="159.996" cy="53.329" r="10.667"/>
			<circle cx="245.329" cy="53.329" r="10.667"/>
			<circle cx="117.329" cy="95.996" r="10.667"/>
			<circle cx="202.662" cy="95.996" r="10.667"/>
			<circle cx="287.996" cy="95.996" r="10.667"/>
			<circle cx="159.996" cy="138.662" r="10.667"/>
			<circle cx="245.329" cy="138.662" r="10.667"/>
			<circle cx="117.329" cy="181.329" r="10.667"/>
			<circle cx="202.662" cy="181.329" r="10.667"/>
			<circle cx="287.996" cy="181.329" r="10.667"/>
			<circle cx="159.996" cy="223.996" r="10.667"/>
			<circle cx="245.329" cy="223.996" r="10.667"/>
			<circle cx="351.996" cy="223.996" r="10.667"/>
			<circle cx="117.329" cy="266.662" r="10.667"/>
			<circle cx="202.662" cy="266.662" r="10.667"/>
			<circle cx="287.996" cy="266.662" r="10.667"/>
			<circle cx="373.329" cy="266.662" r="10.667"/>
			<circle cx="159.996" cy="309.329" r="10.667"/>
			<circle cx="245.329" cy="309.329" r="10.667"/>
			<circle cx="330.662" cy="309.329" r="10.667"/>
			<circle cx="117.329" cy="351.996" r="10.667"/>
			<circle cx="202.662" cy="351.996" r="10.667"/>
			<circle cx="287.996" cy="351.996" r="10.667"/>
			<circle cx="159.996" cy="394.662" r="10.667"/>
			<circle cx="245.329" cy="394.662" r="10.667"/>
		</g>
	</g>
</g>
<g>
</g>
<g>
</g>
<g>
</g>
<g>
</g>
<g>
</g>
<g>
</g>
<g>
</g>
<g>
</g>
<g>
</g>
<g>
</g>
<g>
</g>
<g>
</g>
<g>
</g>
<g>
</g>
<g>
</g>
</svg>
