<?xml version="1.0" encoding="iso-8859-1"?>
<!-- Generator: Adobe Illustrator 19.0.0, SVG Export Plug-In . SVG Version: 6.00 Build 0)  -->
<svg xmlns="http://www.w3.org/2000/svg" xmlns:xlink="http://www.w3.org/1999/xlink" version="1.1" id="Layer_1" x="0px" y="0px" viewBox="0 0 469.333 469.333" style="enable-background:new 0 0 469.333 469.333;" xml:space="preserve">
<g>
	<g>
		<g>
			<path d="M448,106.667h-42.667C393.563,106.667,384,116.24,384,128h-21.333V64h42.667C428.854,64,448,44.865,448,21.333V10.667     C448,4.771,443.229,0,437.333,0h-256c-5.896,0-10.667,4.771-10.667,10.667v10.667c0,23.531,19.146,42.667,42.667,42.667H256v64     h-64c0-23.531-19.146-42.667-42.667-42.667H42.667C19.146,85.333,0,104.469,0,128v277.333C0,428.865,19.146,448,42.667,448H64     v10.667c0,5.896,4.771,10.667,10.667,10.667H96c5.896,0,10.667-4.771,10.667-10.667V448h170.667v10.667     c0,5.896,4.771,10.667,10.667,10.667h21.333c5.896,0,10.667-4.771,10.667-10.667V448h21.333C364.854,448,384,428.865,384,405.333     V320c0-23.531-19.146-42.667-42.667-42.667H202.667c-5.875,0-10.667-4.781-10.667-10.667v-32h192.346     c0.921,11.87,10.592,21.333,22.695,21.333h39.25c12.708,0,23.042-10.333,23.042-23.042V128     C469.333,116.24,459.771,106.667,448,106.667z M202.667,298.667h138.667c11.771,0,21.333,9.573,21.333,21.333v85.333     c0,11.76-9.563,21.333-21.333,21.333H42.667c-11.771,0-21.333-9.573-21.333-21.333V256h32C59.229,256,64,251.229,64,245.333     c0-5.896-4.771-10.667-10.667-10.667h-32v-21.333h32c5.896,0,10.667-4.771,10.667-10.667S59.229,192,53.333,192h-32v-21.333h32     C59.229,170.667,64,165.896,64,160c0-5.896-4.771-10.667-10.667-10.667h-32V128c0-11.76,9.563-21.333,21.333-21.333h106.667     c11.771,0,21.333,9.573,21.333,21.333v138.667C170.667,284.312,185.021,298.667,202.667,298.667z M213.333,42.667     c-11.771,0-21.333-9.573-21.333-21.333h234.667c0,11.76-9.563,21.333-21.333,21.333H213.333z M341.333,64v64h-64V64H341.333z      M384,213.333H192v-64h74.667H352h32V213.333z M448,232.958c0,0.938-0.771,1.708-1.708,1.708h-39.25     c-0.938,0-1.708-0.771-1.708-1.708v-19.625H448V232.958z M448,192h-42.667v-21.333H448V192z M448,149.333h-42.667V128H448     V149.333z"/>
			<path d="M85.333,320c-23.521,0-42.667,19.135-42.667,42.667s19.146,42.667,42.667,42.667c23.521,0,42.667-19.135,42.667-42.667     S108.854,320,85.333,320z M85.333,384C73.562,384,64,374.427,64,362.667c0-11.76,9.563-21.333,21.333-21.333     c11.771,0,21.333,9.573,21.333,21.333C106.667,374.427,97.104,384,85.333,384z"/>
			<circle cx="181.333" cy="394.667" r="10.667"/>
			<circle cx="224" cy="394.667" r="10.667"/>
			<circle cx="266.667" cy="394.667" r="10.667"/>
		</g>
	</g>
</g>
<g>
</g>
<g>
</g>
<g>
</g>
<g>
</g>
<g>
</g>
<g>
</g>
<g>
</g>
<g>
</g>
<g>
</g>
<g>
</g>
<g>
</g>
<g>
</g>
<g>
</g>
<g>
</g>
<g>
</g>
</svg>
