<?xml version="1.0" encoding="iso-8859-1"?>
<!-- Generator: Adobe Illustrator 19.0.0, SVG Export Plug-In . SVG Version: 6.00 Build 0)  -->
<svg xmlns="http://www.w3.org/2000/svg" xmlns:xlink="http://www.w3.org/1999/xlink" version="1.1" id="Layer_1" x="0px" y="0px" viewBox="0 0 469.333 469.333" style="enable-background:new 0 0 469.333 469.333;" xml:space="preserve">
<g>
	<g>
		<g>
			<path d="M224.001,128h-85.333c-5.896,0-10.667,4.771-10.667,10.667s4.771,10.667,10.667,10.667h85.333     c5.896,0,10.667-4.771,10.667-10.667S229.897,128,224.001,128z"/>
			<path d="M138.668,192h64c5.896,0,10.667-4.771,10.667-10.667c0-5.896-4.771-10.667-10.667-10.667h-64     c-5.896,0-10.667,4.771-10.667,10.667C128.001,187.229,132.772,192,138.668,192z"/>
			<path d="M224.001,213.333h-85.333c-5.896,0-10.667,4.771-10.667,10.667c0,5.896,4.771,10.667,10.667,10.667h85.333     c5.896,0,10.667-4.771,10.667-10.667C234.668,218.104,229.897,213.333,224.001,213.333z"/>
			<path d="M138.668,277.333h64c5.896,0,10.667-4.771,10.667-10.667S208.563,256,202.668,256h-64     c-5.896,0-10.667,4.771-10.667,10.667S132.772,277.333,138.668,277.333z"/>
			<path d="M224.001,298.667h-85.333c-5.896,0-10.667,4.771-10.667,10.667c0,5.896,4.771,10.667,10.667,10.667h85.333     c5.896,0,10.667-4.771,10.667-10.667C234.668,303.437,229.897,298.667,224.001,298.667z"/>
			<path d="M138.668,362.667h64c5.896,0,10.667-4.771,10.667-10.667c0-5.896-4.771-10.667-10.667-10.667h-64     c-5.896,0-10.667,4.771-10.667,10.667C128.001,357.896,132.772,362.667,138.668,362.667z"/>
			<path d="M224.001,384h-85.333c-5.896,0-10.667,4.771-10.667,10.667c0,5.896,4.771,10.667,10.667,10.667h85.333     c5.896,0,10.667-4.771,10.667-10.667C234.668,388.771,229.897,384,224.001,384z"/>
			<path d="M384.001,0h-352c-3.937,0-7.552,2.167-9.406,5.635c-1.854,3.469-1.656,7.677,0.531,10.948l29.25,43.885     c7.604,11.396,11.625,24.667,11.625,38.375v327.823c0,23.531,19.135,42.667,42.667,42.667h213.333     c23.531,0,42.667-19.135,42.667-42.667V303.844c0-8.552,3.333-16.583,9.375-22.635l60.333-60.333     c10.073-10.073,15.625-23.469,15.625-37.719V64C448.001,28.708,419.293,0,384.001,0z M426.668,183.156     c0,8.552-3.323,16.583-9.375,22.625l-60.333,60.344c-10.073,10.073-15.625,23.469-15.625,37.719v122.823     c0,11.76-9.573,21.333-21.333,21.333H106.668c-11.76,0-21.333-9.573-21.333-21.333V98.844c0-17.938-5.26-35.292-15.208-50.208     L51.928,21.333h332.073c23.531,0,42.667,19.135,42.667,42.667V183.156z"/>
			<path d="M384.001,42.667h-32c-5.896,0-10.667,4.771-10.667,10.667v172.5c0,4.313,2.594,8.208,6.583,9.854     c1.323,0.552,2.708,0.813,4.083,0.813c2.771,0,5.5-1.083,7.542-3.125l36.417-36.417c6.042-6.042,9.375-14.083,9.375-22.625V64     C405.334,52.24,395.761,42.667,384.001,42.667z M384.001,174.333c0,2.802-1.135,5.552-3.125,7.542l-18.208,18.208V64h21.333     V174.333z"/>
			<path d="M288.001,384h-10.667v-32c0-5.896-4.771-10.667-10.667-10.667c-5.896,0-10.667,4.771-10.667,10.667v42.667     c0,5.896,4.771,10.667,10.667,10.667h21.333c5.896,0,10.667-4.771,10.667-10.667C298.668,388.771,293.897,384,288.001,384z"/>
		</g>
	</g>
</g>
<g>
</g>
<g>
</g>
<g>
</g>
<g>
</g>
<g>
</g>
<g>
</g>
<g>
</g>
<g>
</g>
<g>
</g>
<g>
</g>
<g>
</g>
<g>
</g>
<g>
</g>
<g>
</g>
<g>
</g>
</svg>
