<?xml version="1.0" encoding="iso-8859-1"?>
<!-- Generator: Adobe Illustrator 19.0.0, SVG Export Plug-In . SVG Version: 6.00 Build 0)  -->
<svg xmlns="http://www.w3.org/2000/svg" xmlns:xlink="http://www.w3.org/1999/xlink" version="1.1" id="Layer_1" x="0px" y="0px" viewBox="0 0 512 512" style="enable-background:new 0 0 512 512;" xml:space="preserve">
<g>
	<g>
		<g>
			<path d="M311.833,269.896C300.5,255.438,291.563,244.01,291.563,224c0-3.969-2.208-7.604-5.708-9.448     c-3.5-1.823-7.75-1.594-11.021,0.667c-21.917,15.125-38.854,36.063-46.438,57.448c-4.083,11.448-6.167,22.521-7.146,31.99     c-3.667-5.188-4.417-13.594-4.354-16.354c0.104-3.667-1.688-7.135-4.75-9.177c-3.021-2.021-6.917-2.354-10.292-0.854     c-1.208,0.542-29.688,13.875-31.083,61.01c-0.104,1.573-0.104,3.146-0.104,4.719c0,45.583,38.271,82.667,85.333,82.667     s85.333-37.083,85.333-82.667c0-2.25-0.146-4.344-0.479-8.552C338.333,303.76,324.25,285.771,311.833,269.896z M256,405.333     c-35.292,0-64-27.51-64-61.333l0.083-3.75c0.417-14.396,3.833-24.229,7.604-30.781c1.708,4.042,4.104,8.073,7.5,11.563     c6.125,6.302,14.396,9.635,23.917,9.635c5.896,0,10.667-4.771,10.667-10.667c0-9.719,1.167-24.573,6.708-40.188     c4.438-12.479,13-24.906,24.333-35.604c4.313,15.958,13.375,27.542,22.208,38.844c11.604,14.813,22.563,28.802,24.563,53.938     c0,0.042,0.167,2.177,0.167,2.219c0.125,1.563,0.25,3.115,0.25,4.792C320,377.823,291.292,405.333,256,405.333z"/>
			<path d="M405.333,155.27V42.667C405.333,19.135,386.188,0,362.667,0H149.333c-23.521,0-42.667,19.135-42.667,42.667V155.27     c-12.689,7.401-21.333,21.008-21.333,36.73v277.333C85.333,492.865,104.479,512,128,512h256     c23.521,0,42.667-19.135,42.667-42.667V192C426.667,176.277,418.022,162.671,405.333,155.27z M128,42.667     c0-11.76,9.563-21.333,21.333-21.333h213.333c11.771,0,21.333,9.573,21.333,21.333v106.667h-32.018l0.016-54.716     c1.77-0.694,3.54-1.633,5.169-3.242c4.938-4.844,5.5-11.854,5.5-16.708c0-18.542-8.979-32-21.354-32     c-12.354,0-21.313,13.458-21.313,32c0,4.854,0.563,11.865,5.5,16.708c1.63,1.609,3.396,2.534,5.164,3.225l-0.016,54.733h-32     l0.016-54.716c1.77-0.694,3.54-1.633,5.169-3.242c4.938-4.844,5.5-11.854,5.5-16.708c0-18.542-8.979-32-21.354-32     c-12.354,0-21.313,13.458-21.313,32c0,4.854,0.563,11.865,5.5,16.708c1.631,1.611,3.396,2.535,5.164,3.227l-0.016,54.732h-42.646     l0.016-54.716c1.77-0.694,3.54-1.633,5.169-3.242c4.938-4.844,5.5-11.854,5.5-16.708c0-18.542-8.979-32-21.354-32     c-12.354,0-21.313,13.458-21.313,32c0,4.854,0.563,11.865,5.5,16.708c1.626,1.605,3.393,2.529,5.164,3.22l-0.016,54.738h-32.021     l0.016-54.716c1.77-0.694,3.54-1.633,5.169-3.242c4.938-4.844,5.5-11.854,5.5-16.708c0-18.542-8.979-32-21.354-32     c-12.354,0-21.313,13.458-21.313,32c0,4.854,0.563,11.865,5.5,16.708c1.626,1.605,3.393,2.529,5.164,3.22l-0.016,54.738H128     V42.667z M405.333,469.333c0,11.76-9.563,21.333-21.333,21.333H128c-11.771,0-21.333-9.573-21.333-21.333V192     c0-11.76,9.563-21.333,21.333-21.333h256c11.771,0,21.333,9.573,21.333,21.333V469.333z"/>
		</g>
	</g>
</g>
<g>
</g>
<g>
</g>
<g>
</g>
<g>
</g>
<g>
</g>
<g>
</g>
<g>
</g>
<g>
</g>
<g>
</g>
<g>
</g>
<g>
</g>
<g>
</g>
<g>
</g>
<g>
</g>
<g>
</g>
</svg>
