<?xml version="1.0" encoding="iso-8859-1"?>
<!-- Generator: Adobe Illustrator 19.0.0, SVG Export Plug-In . SVG Version: 6.00 Build 0)  -->
<svg xmlns="http://www.w3.org/2000/svg" xmlns:xlink="http://www.w3.org/1999/xlink" version="1.1" id="Layer_1" x="0px" y="0px" viewBox="0 0 512 512" style="enable-background:new 0 0 512 512;" xml:space="preserve">
<g>
	<g>
		<path d="M501.333,341.333h-75.229C420.138,187.656,288.699,64,256,64S91.862,187.656,85.896,341.333H10.667    C4.771,341.333,0,346.104,0,352v14.74c0,19.917,4.708,39.865,13.604,57.688C20.896,438.969,35.521,448,51.771,448h408.458    c16.25,0,30.875-9.031,38.167-23.583C507.292,406.604,512,386.656,512,366.74V352C512,346.104,507.229,341.333,501.333,341.333z     M404.763,341.333h-74.32c-1.564-90.81-22.599-183.139-44.092-235.043C329.504,144.995,400.241,233.742,404.763,341.333z     M309.116,341.333H202.884C204.906,220.555,240.212,120.421,256,91.457C271.788,120.421,307.094,220.555,309.116,341.333z     M225.724,106.103c-21.518,51.87-42.602,144.316-44.167,235.23h-74.32C111.767,233.551,182.732,144.698,225.724,106.103z     M490.667,366.74c0,16.625-3.917,33.271-11.354,48.125c-3.646,7.281-10.958,11.802-19.083,11.802H51.771    c-8.125,0-15.438-4.521-19.083-11.792c-7.438-14.865-11.354-31.51-11.354-48.135v-4.073h469.333V366.74z"/>
	</g>
</g>
<g>
</g>
<g>
</g>
<g>
</g>
<g>
</g>
<g>
</g>
<g>
</g>
<g>
</g>
<g>
</g>
<g>
</g>
<g>
</g>
<g>
</g>
<g>
</g>
<g>
</g>
<g>
</g>
<g>
</g>
</svg>
