<?xml version="1.0" encoding="iso-8859-1"?>
<!-- Generator: Adobe Illustrator 19.0.0, SVG Export Plug-In . SVG Version: 6.00 Build 0)  -->
<svg xmlns="http://www.w3.org/2000/svg" xmlns:xlink="http://www.w3.org/1999/xlink" version="1.1" id="Layer_1" x="0px" y="0px" viewBox="0 0 512 512" style="enable-background:new 0 0 512 512;" xml:space="preserve">
<g>
	<g>
		<path d="M234.667,0C211.135,0,192,19.135,192,42.667V470c0,23.156,18.844,42,42,42c11.552,0,22.323-4.594,30.323-12.938    c7.99-8.333,12.125-19.281,11.635-30.813l-6.594-158.479c-0.125-2.927,0.927-5.708,2.958-7.823    c2.031-2.115,4.76-3.281,7.781-3.281c22,0,39.896-17.896,39.896-39.896V85.333C320,38.281,281.719,0,234.667,0z M298.667,258.771    c0,10.24-8.323,18.563-18.646,18.563c-8.802,0-17.01,3.5-23.104,9.854c-6.083,6.354-9.24,14.688-8.865,23.479l6.594,158.479    c0.24,5.677-1.792,11.052-5.729,15.156c-3.927,4.104-9.229,6.365-14.917,6.365c-11.396,0-20.667-9.271-20.667-20.667V42.667    c0-11.76,9.573-21.333,21.333-21.333c35.292,0,64,28.708,64,64V258.771z"/>
	</g>
</g>
<g>
</g>
<g>
</g>
<g>
</g>
<g>
</g>
<g>
</g>
<g>
</g>
<g>
</g>
<g>
</g>
<g>
</g>
<g>
</g>
<g>
</g>
<g>
</g>
<g>
</g>
<g>
</g>
<g>
</g>
</svg>
