<?xml version="1.0" encoding="iso-8859-1"?>
<!-- Generator: Adobe Illustrator 19.0.0, SVG Export Plug-In . SVG Version: 6.00 Build 0)  -->
<svg xmlns="http://www.w3.org/2000/svg" xmlns:xlink="http://www.w3.org/1999/xlink" version="1.1" id="Layer_1" x="0px" y="0px" viewBox="0 0 469.46 469.46" style="enable-background:new 0 0 469.46 469.46;" xml:space="preserve">
<g>
	<g>
		<g>
			<circle cx="405.333" cy="64.063" r="10.667"/>
			<path d="M460.707,96.108c11.512-19.435,11.715-44.349,0.335-63.749C450.656,14.693,433.323,3.11,413.49,0.578     c-19.792-2.469-39.281,4.115-53.24,18.073c-2.607,2.462-92.185,84.719-116.168,106.74c-16.082-8.284-37.117-6.048-50.249,7.083     L12.5,313.808C4.552,321.745,0,332.745,0,343.974v82.75c0,23.531,19.135,42.667,42.667,42.667H160h96     c23.531,0,42.667-19.135,42.667-42.667v-91.583l48.917-48.917c16.155-16.155,16.483-42.065,1.262-58.788l34.311-29.035     c6.573-5.563,15.313-6.427,21.385-6.552c22.427-0.083,43.656-11.281,55.729-31.104c11.875-19.531,12.115-44.802,0.604-64.385     C460.823,96.271,460.759,96.194,460.707,96.108z M277.333,426.724c0,11.76-9.573,21.333-21.333,21.333h-70.25l91.583-91.583     V426.724z M332.5,271.141L155.583,448.058H42.667c-11.76,0-21.333-9.573-21.333-21.333v-82.75c0-5.615,2.281-11.115,6.25-15.083     l181.333-181.333c4.156-4.156,9.625-6.24,15.083-6.24c5.458,0,10.927,2.083,15.083,6.24l93.417,93.417     C340.813,249.287,340.813,262.828,332.5,271.141z M442.042,149.651c-8.219,13.49-21.51,20.281-37.188,20.865     c-14.01,0.156-26.281,3.823-35.479,11.604l-35.513,30.049l-19.457-19.457l68.897-58.301c3.448-2.915,7.456-4.563,11.379-5.494     c0.461,5.465,4.908,9.806,10.492,9.806c5.892,0,10.667-4.776,10.667-10.667c0-0.579-0.242-1.081-0.331-1.635     c10.892-1.857,20.927-6.242,29.523-12.996C449.376,125.142,448.587,138.897,442.042,149.651z M442.198,85.662     c-8.198,13.479-21.479,20.625-37.167,20.865c-13.906,0.031-26.302,3.802-35.5,11.594l-70.263,59.456l-38.522-38.522     C300.32,102.711,374.022,35.026,375.167,33.891c9.406-9.406,22.427-13.885,35.615-12.146c13.24,1.688,24.854,9.5,31.865,21.417     C450.104,55.881,449.927,72.964,442.198,85.662z"/>
		</g>
	</g>
</g>
<g>
</g>
<g>
</g>
<g>
</g>
<g>
</g>
<g>
</g>
<g>
</g>
<g>
</g>
<g>
</g>
<g>
</g>
<g>
</g>
<g>
</g>
<g>
</g>
<g>
</g>
<g>
</g>
<g>
</g>
</svg>
