<?xml version="1.0" encoding="iso-8859-1"?>
<!-- Generator: Adobe Illustrator 19.0.0, SVG Export Plug-In . SVG Version: 6.00 Build 0)  -->
<svg xmlns="http://www.w3.org/2000/svg" xmlns:xlink="http://www.w3.org/1999/xlink" version="1.1" id="Layer_1" x="0px" y="0px" viewBox="0 0 512 512" style="enable-background:new 0 0 512 512;" xml:space="preserve">
<g>
	<g>
		<g>
			<path d="M446.906,452.729l-57.448-248.99c-4.5-19.479-21.594-33.073-41.583-33.073h-49.208V128h10.667     c64.698,0,117.333-52.635,117.333-117.333C426.667,4.771,421.896,0,416,0H96c-5.896,0-10.667,4.771-10.667,10.667     C85.333,75.365,137.969,128,202.667,128h10.667v42.667h-49.208c-19.99,0-37.083,13.594-41.583,33.073L64.271,456.271     c-0.177,0.781-0.271,1.594-0.271,2.396v10.667C64,492.865,83.135,512,106.667,512h298.667C428.865,512,448,492.865,448,469.333     v-7.01C448,459.052,447.625,455.813,446.906,452.729z M202.667,106.667c-49.333,0-90.083-37.396-95.406-85.333H404.74     c-5.323,47.938-46.073,85.333-95.406,85.333H202.667z M277.333,128v42.667h-42.667V128H277.333z M426.667,469.333     c0,11.76-9.573,21.333-21.333,21.333H106.667c-11.76,0-21.333-9.573-21.333-21.333v-9.448l58-251.354     c2.25-9.729,10.802-16.531,20.792-16.531h183.75c9.99,0,18.542,6.802,20.792,16.531l57.458,249.031     c0.365,1.531,0.542,3.135,0.542,4.76V469.333z"/>
			<path d="M256,234.667c-58.813,0-106.667,47.854-106.667,106.667C149.333,400.146,197.188,448,256,448     s106.667-47.854,106.667-106.667C362.667,282.521,314.813,234.667,256,234.667z M256,426.667     c-47.052,0-85.333-38.281-85.333-85.333C170.667,294.281,208.948,256,256,256s85.333,38.281,85.333,85.333     C341.333,388.385,303.052,426.667,256,426.667z"/>
			<circle cx="117.333" cy="458.667" r="10.667"/>
			<path d="M256,277.333c-4.99,0-9.313,3.458-10.406,8.323c-4.083,18.156-10.927,49.521-10.927,55.677     c0,11.76,9.573,21.333,21.333,21.333s21.333-9.573,21.333-21.333c0-6.156-6.844-37.521-10.927-55.677     C265.313,280.792,260.99,277.333,256,277.333z"/>
		</g>
	</g>
</g>
<g>
</g>
<g>
</g>
<g>
</g>
<g>
</g>
<g>
</g>
<g>
</g>
<g>
</g>
<g>
</g>
<g>
</g>
<g>
</g>
<g>
</g>
<g>
</g>
<g>
</g>
<g>
</g>
<g>
</g>
</svg>
