<?xml version="1.0" encoding="iso-8859-1"?>
<!-- Generator: Adobe Illustrator 19.0.0, SVG Export Plug-In . SVG Version: 6.00 Build 0)  -->
<svg xmlns="http://www.w3.org/2000/svg" xmlns:xlink="http://www.w3.org/1999/xlink" version="1.1" id="Layer_1" x="0px" y="0px" viewBox="0 0 512 512" style="enable-background:new 0 0 512 512;" xml:space="preserve">
<g>
	<g>
		<g>
			<path d="M405.333,0H106.667C83.135,0,64,19.135,64,42.667v426.667C64,492.865,83.135,512,106.667,512h298.667     C428.865,512,448,492.865,448,469.333V42.667C448,19.135,428.865,0,405.333,0z M426.667,469.333     c0,11.76-9.573,21.333-21.333,21.333H106.667c-11.76,0-21.333-9.573-21.333-21.333V42.667c0-11.76,9.573-21.333,21.333-21.333     h298.667c11.76,0,21.333,9.573,21.333,21.333V469.333z"/>
			<path d="M160,42.667h-21.333c-17.646,0-32,14.354-32,32V96c0,5.896,4.771,10.667,10.667,10.667     c5.896,0,10.667-4.771,10.667-10.667V74.667C128,68.781,132.781,64,138.667,64H160c5.896,0,10.667-4.771,10.667-10.667     C170.667,47.438,165.896,42.667,160,42.667z"/>
			<path d="M394.667,277.333c-5.896,0-10.667,4.771-10.667,10.667v21.333c0,5.885-4.781,10.667-10.667,10.667H352     c-5.896,0-10.667,4.771-10.667,10.667c0,5.896,4.771,10.667,10.667,10.667h21.333c17.646,0,32-14.354,32-32V288     C405.333,282.104,400.563,277.333,394.667,277.333z"/>
			<path d="M160,320h-21.333c-5.885,0-10.667-4.781-10.667-10.667V288c0-5.896-4.771-10.667-10.667-10.667     c-5.896,0-10.667,4.771-10.667,10.667v21.333c0,17.646,14.354,32,32,32H160c5.896,0,10.667-4.771,10.667-10.667     C170.667,324.771,165.896,320,160,320z"/>
			<path d="M373.333,42.667H352c-5.896,0-10.667,4.771-10.667,10.667C341.333,59.229,346.104,64,352,64h21.333     C379.219,64,384,68.781,384,74.667V96c0,5.896,4.771,10.667,10.667,10.667s10.667-4.771,10.667-10.667V74.667     C405.333,57.021,390.979,42.667,373.333,42.667z"/>
			<path d="M240.583,428.458l-21.177-14.115l22.802-22.802c4.167-4.167,4.167-10.917,0-15.083c-4.167-4.167-10.917-4.167-15.083,0     l-13.792,13.792v-27.583c0-5.896-4.771-10.667-10.667-10.667c-5.896,0-10.667,4.771-10.667,10.667v74.667     c0,5.896,4.771,10.667,10.667,10.667c5.896,0,10.667-4.771,10.667-10.667v-1.402l15.417,10.277     c1.823,1.208,3.875,1.792,5.906,1.792c3.448,0,6.833-1.667,8.885-4.75C246.813,438.344,245.49,431.729,240.583,428.458z"/>
			<path d="M309.333,384h-42.667c-5.896,0-10.667,4.771-10.667,10.667v42.667c0,5.896,4.771,10.667,10.667,10.667h32v10.667h-32     c-5.896,0-10.667,4.771-10.667,10.667c0,5.896,4.771,10.667,10.667,10.667h42.667c5.896,0,10.667-4.771,10.667-10.667v-32     v-10.667v-32C320,388.771,315.229,384,309.333,384z M298.667,426.667h-21.333v-21.333h21.333V426.667z"/>
		</g>
	</g>
</g>
<g>
</g>
<g>
</g>
<g>
</g>
<g>
</g>
<g>
</g>
<g>
</g>
<g>
</g>
<g>
</g>
<g>
</g>
<g>
</g>
<g>
</g>
<g>
</g>
<g>
</g>
<g>
</g>
<g>
</g>
</svg>
