<?xml version="1.0" encoding="iso-8859-1"?>
<!-- Generator: Adobe Illustrator 19.0.0, SVG Export Plug-In . SVG Version: 6.00 Build 0)  -->
<svg xmlns="http://www.w3.org/2000/svg" xmlns:xlink="http://www.w3.org/1999/xlink" version="1.1" id="Layer_1" x="0px" y="0px" viewBox="0 0 512 512" style="enable-background:new 0 0 512 512;" xml:space="preserve">
<g>
	<g>
		<g>
			<path d="M330.667,0H192c-23.531,0-42.667,19.135-42.667,42.667v266.667v135.625c0,34.188,25.229,63.49,57.438,66.719     c2.146,0.208,4.281,0.323,6.417,0.323c15.865,0,31.292-5.865,43.083-16.542c13.385-12.115,21.063-29.417,21.063-47.458     c0-14.208-4.635-27.677-13.406-38.948c-3.615-4.646-7.927-12.063-7.927-20.948V320h74.667c27.844,0,32-100.25,32-160     S358.51,0,330.667,0z M241.958,479.646c-9.042,8.188-20.677,12.021-33.063,10.802c-21.438-2.146-38.229-22.125-38.229-45.49V320     h64v68.104c0,11.823,4.292,23.594,12.427,34.052C252.917,429.646,256,438.583,256,448     C256,460.031,250.885,471.563,241.958,479.646z M284.299,298.667H170.667v-256c0-11.76,9.573-21.333,21.333-21.333h92.299     c5.448,9.799,14.367,56.382,14.367,138.667C298.667,242.286,289.749,288.867,284.299,298.667z M327.167,298.667H306.43     C317.82,265.988,320,202.727,320,160s-2.18-105.988-13.57-138.667h20.737c5.469,10.74,14.167,57.604,14.167,138.667     S332.635,287.927,327.167,298.667z"/>
			<circle cx="213.333" cy="448" r="10.667"/>
			<path d="M213.333,42.667C201.573,42.667,192,52.24,192,64s9.573,21.333,21.333,21.333c11.76,0,21.333-9.573,21.333-21.333     S225.094,42.667,213.333,42.667z"/>
		</g>
	</g>
</g>
<g>
</g>
<g>
</g>
<g>
</g>
<g>
</g>
<g>
</g>
<g>
</g>
<g>
</g>
<g>
</g>
<g>
</g>
<g>
</g>
<g>
</g>
<g>
</g>
<g>
</g>
<g>
</g>
<g>
</g>
</svg>
