<?xml version="1.0" encoding="iso-8859-1"?>
<!-- Generator: Adobe Illustrator 19.0.0, SVG Export Plug-In . SVG Version: 6.00 Build 0)  -->
<svg xmlns="http://www.w3.org/2000/svg" xmlns:xlink="http://www.w3.org/1999/xlink" version="1.1" id="Layer_1" x="0px" y="0px" viewBox="0 0 512 512" style="enable-background:new 0 0 512 512;" xml:space="preserve">
<g>
	<g>
		<g>
			<path d="M202.669,106.667c-29.417,0-53.333,23.927-53.333,53.333v170.667c0,29.406,23.917,53.333,53.333,53.333     s53.333-23.927,53.333-53.333V160C256.002,130.594,232.086,106.667,202.669,106.667z M234.669,330.667c0,17.646-14.354,32-32,32     c-13.888,0-25.617-8.944-30.035-21.333h30.035c5.896,0,10.667-4.771,10.667-10.667c0-5.896-4.771-10.667-10.667-10.667h-32     v-21.333h21.333c5.896,0,10.667-4.771,10.667-10.667s-4.771-10.667-10.667-10.667h-21.333V256h32     c5.896,0,10.667-4.771,10.667-10.667c0-5.896-4.771-10.667-10.667-10.667h-32v-21.333h21.333c5.896,0,10.667-4.771,10.667-10.667     c0-5.896-4.771-10.667-10.667-10.667h-21.333v-21.333h32c5.896,0,10.667-4.771,10.667-10.667s-4.771-10.667-10.667-10.667     h-30.035C177.052,136.944,188.781,128,202.669,128c17.646,0,32,14.354,32,32V330.667z"/>
			<path d="M384.002,85.333h-32c-5.896,0-10.667,4.771-10.667,10.667v172.5c0,4.313,2.604,8.208,6.583,9.854     c1.313,0.552,2.708,0.813,4.083,0.813c2.771,0,5.5-1.083,7.542-3.125l36.417-36.417c6.042-6.042,9.375-14.083,9.375-22.625     V106.667C405.336,94.906,395.773,85.333,384.002,85.333z M384.002,217c0,2.802-1.146,5.552-3.125,7.542l-18.208,18.208V106.667     h21.333V217z"/>
			<path d="M384.002,42.667H336.73C320.877,16.266,292.798,0,261.627,0h-53.917c-31.171,0-59.25,16.266-75.103,42.667H74.669     c-3.938,0-7.542,2.167-9.396,5.635c-1.875,3.469-1.667,7.677,0.521,10.948l29.25,43.885     c7.604,11.396,11.625,24.667,11.625,38.375v292.583l-1.813,2.719c-12.771,19.156-19.521,41.469-19.521,64.521     c0,2.833,1.125,5.542,3.125,7.542S93.169,512,96.002,512l277.333-0.031c5.896,0,10.667-4.771,10.667-10.667     c0-23.031-6.75-45.333-19.521-64.5l-1.813-2.708V346.51c0-8.552,3.333-16.583,9.375-22.635l60.333-60.344     c10.083-10.073,15.625-23.469,15.625-37.708V106.667C448.002,71.375,419.294,42.667,384.002,42.667z M207.711,21.333h53.917     c18.953,0,36.466,7.884,48.848,21.333H158.864C171.246,29.217,188.757,21.333,207.711,21.333z M107.252,490.667     c1.688-14.99,6.917-29.354,15.354-42.01L346.294,448l0.438,0.646c8.438,12.667,13.667,27.021,15.333,42.021H107.252z      M426.669,225.823c0,8.542-3.333,16.583-9.375,22.625l-60.333,60.344c-10.083,10.073-15.625,23.469-15.625,37.719v80.156H128.002     V141.51c0-17.938-5.25-35.302-15.208-50.208L94.606,64h289.396c23.521,0,42.667,19.135,42.667,42.667V225.823z"/>
		</g>
	</g>
</g>
<g>
</g>
<g>
</g>
<g>
</g>
<g>
</g>
<g>
</g>
<g>
</g>
<g>
</g>
<g>
</g>
<g>
</g>
<g>
</g>
<g>
</g>
<g>
</g>
<g>
</g>
<g>
</g>
<g>
</g>
</svg>
