<?xml version="1.0" encoding="iso-8859-1"?>
<!-- Generator: Adobe Illustrator 19.0.0, SVG Export Plug-In . SVG Version: 6.00 Build 0)  -->
<svg xmlns="http://www.w3.org/2000/svg" xmlns:xlink="http://www.w3.org/1999/xlink" version="1.1" id="Layer_1" x="0px" y="0px" viewBox="0 0 469.333 469.333" style="enable-background:new 0 0 469.333 469.333;" xml:space="preserve">
<g>
	<g>
		<g>
			<path d="M440.458,92.875C442.542,94.958,445.271,96,448,96c2.729,0,5.458-1.042,7.542-3.125c4.167-4.167,4.167-10.917,0-15.083     l-63.99-64c-4.167-4.167-10.917-4.167-15.083,0c-4.167,4.167-4.167,10.917,0,15.083L440.458,92.875z"/>
			<path d="M451.125,60.875c2.083,2.083,4.813,3.125,7.542,3.125c2.729,0,5.458-1.042,7.542-3.125     c4.167-4.167,4.167-10.917,0-15.083L423.552,3.125c-4.167-4.167-10.917-4.167-15.083,0c-4.167,4.167-4.167,10.917,0,15.083     L451.125,60.875z"/>
			<path d="M429.792,124.875c2.083,2.083,4.813,3.125,7.542,3.125s5.458-1.042,7.542-3.125c4.167-4.167,4.167-10.917,0-15.083     l-85.313-85.333c-4.167-4.167-10.917-4.167-15.083,0c-4.167,4.167-4.167,10.917,0,15.083L429.792,124.875z"/>
			<path d="M419.135,156.875c2.083,2.083,4.813,3.125,7.542,3.125s5.458-1.042,7.542-3.125c4.167-4.167,4.167-10.917,0-15.083     L327.573,35.125c-4.167-4.167-10.917-4.167-15.083,0c-4.167,4.167-4.167,10.917,0,15.083L419.135,156.875z"/>
			<path d="M348.896,199.542c4.167-4.167,4.167-10.917,0-15.083l-63.979-64c-4.167-4.167-10.917-4.167-15.083,0     c-4.167,4.167-4.167,10.917,0,15.083l63.979,64c2.083,2.083,4.813,3.125,7.542,3.125     C344.083,202.667,346.813,201.625,348.896,199.542z"/>
			<path d="M306.448,184.656l-21.729-21.719c-4.833-4.854-11.854-7.073-18.5-5.99c-6.75,1.094-12.615,5.406-15.667,11.521     l-4.542,9.073c-6.188,12.385-14.427,23.469-24.51,32.958L67.813,355.229c-4.583,4.313-11.271,6.938-19.875,7.802     c-16.99,1.698-31.844,11.271-40.75,26.271C2.469,397.24-0.01,406.479,0,416.042c0.031,10.302,2.927,20.188,8.385,28.594     c10,15.427,26.802,24.656,44.927,24.698c0.031,0,0.073,0,0.104,0c14.24,0,27.635-5.542,37.708-15.625     c8.646-8.646,14.063-20.104,15.26-32.292c0.833-8.552,3.469-15.219,7.802-19.833l144.698-153.708     c9.479-10.073,20.563-18.323,32.938-24.51l9.063-4.542c6.115-3.052,10.427-8.906,11.531-15.646     c1.094-6.75-1.125-13.677-5.958-18.51L306.448,184.656z M282.281,204.281c-14.625,7.313-27.729,17.063-38.938,28.969     L98.646,386.969c-7.646,8.135-12.188,19.021-13.49,32.365c-0.729,7.385-3.875,14.052-9.115,19.292     C69.99,444.667,61.958,448,53.417,448c-0.021,0-0.042,0-0.063,0c-11.042-0.021-20.917-5.479-27.073-14.979     c-3.219-4.958-4.927-10.844-4.948-17.021c-0.01-5.708,1.438-11.167,4.188-15.802c5.5-9.25,14.208-14.906,24.542-15.938     c13.396-1.344,24.281-5.885,32.375-13.5l153.688-144.729c11.906-11.219,21.656-24.323,28.969-38.948l4.531-9.073l21.729,21.729     L282.281,204.281z"/>
			<path d="M365.813,188.875c2.083,2.083,4.813,3.125,7.542,3.125c2.729,0,5.458-1.042,7.542-3.125     c4.167-4.167,4.167-10.917,0-15.083l-85.323-85.333c-4.167-4.167-10.917-4.167-15.083,0c-4.167,4.167-4.167,10.917,0,15.083     L365.813,188.875z"/>
			<path d="M397.802,178.208c2.083,2.083,4.813,3.125,7.542,3.125c2.729,0,5.458-1.042,7.542-3.125     c4.167-4.167,4.167-10.917,0-15.083L306.24,56.458c-4.167-4.167-10.917-4.167-15.083,0c-4.167,4.167-4.167,10.917,0,15.083     L397.802,178.208z"/>
			<path d="M397.01,238.667c-5.698,7.104-55.677,70.396-55.677,102.667c0,35.292,28.708,64,64,64s64-28.708,64-64     c0-32.271-49.979-95.563-55.677-102.667C409.615,233.604,401.052,233.604,397.01,238.667z M405.333,384     c-23.531,0-42.667-19.135-42.667-42.667c0-16.24,23.552-53.042,42.667-78.563C424.448,288.281,448,325.083,448,341.333     C448,364.865,428.865,384,405.333,384z"/>
		</g>
	</g>
</g>
<g>
</g>
<g>
</g>
<g>
</g>
<g>
</g>
<g>
</g>
<g>
</g>
<g>
</g>
<g>
</g>
<g>
</g>
<g>
</g>
<g>
</g>
<g>
</g>
<g>
</g>
<g>
</g>
<g>
</g>
</svg>
