<?xml version="1.0" encoding="iso-8859-1"?>
<!-- Generator: Adobe Illustrator 19.0.0, SVG Export Plug-In . SVG Version: 6.00 Build 0)  -->
<svg xmlns="http://www.w3.org/2000/svg" xmlns:xlink="http://www.w3.org/1999/xlink" version="1.1" id="Layer_1" x="0px" y="0px" viewBox="0 0 512 512" style="enable-background:new 0 0 512 512;" xml:space="preserve">
<g>
	<g>
		<g>
			<circle cx="256" cy="149.333" r="21.333"/>
			<path d="M298.667,320c5.021,0,9.354-3.5,10.427-8.406l2.781-12.802c4.26-19.688,11.167-38.646,18.458-57.958     c9.094-24.063,11-45.635,11-59.5c0-23.792-5.396-52.229-14.813-78.01c-5.406-14.771-6.115-30.448-2-44.146     c2.594-8.635,6.167-15.229,10.313-22.865c1.75-3.24,3.563-6.583,5.375-10.208c0.74-1.479,1.125-3.115,1.125-4.771     c0-6.927,0-21.333-85.333-21.333s-85.333,14.406-85.333,21.333c0,1.656,0.385,3.292,1.125,4.771     c1.813,3.625,3.625,6.969,5.375,10.208c4.146,7.635,7.719,14.229,10.313,22.865c4.115,13.698,3.406,29.375-2,44.156     c-9.417,25.771-14.813,54.208-14.813,78c0,13.865,1.906,35.438,11,59.5c7.292,19.313,14.198,38.271,18.458,57.958l2.781,12.802     c1.073,4.906,5.406,8.406,10.427,8.406H224v96.406c0,10.083-4.698,19.375-12.885,25.521     c-18.927,14.198-29.781,35.854-29.781,59.406c0,5.896,4.771,10.667,10.667,10.667h128c5.896,0,10.667-4.771,10.667-10.667     c0-23.552-10.854-45.208-29.792-59.406C292.698,435.781,288,426.49,288,416.406V320H298.667z M288.073,458.99     c10.583,7.938,17.635,19.135,20.188,31.677H203.74c2.552-12.542,9.594-23.74,20.177-31.677     c13.417-10.052,21.417-25.969,21.417-42.583V320h21.333v96.406C266.667,433.021,274.667,448.938,288.073,458.99z      M221.927,298.667l-0.948-4.396c-4.573-21.104-11.771-40.885-19.354-60.979C193.667,212.25,192,193.417,192,181.333     c0-10.125,1.313-37.271,13.521-70.677c6.969-19.073,7.823-39.542,2.396-57.625c-3.229-10.729-7.49-18.583-11.99-26.885     c-0.042-0.083-0.094-0.167-0.135-0.25c9.896-2.125,29.76-4.563,60.208-4.563s50.313,2.438,60.208,4.563     c-0.042,0.083-0.094,0.167-0.135,0.25c-4.5,8.302-8.76,16.156-11.99,26.885c-5.427,18.083-4.573,38.552,2.396,57.615     C318.688,144.063,320,171.208,320,181.333c0,12.083-1.667,30.917-9.625,51.958c-7.583,20.094-14.781,39.875-19.354,60.979     l-0.948,4.396H221.927z"/>
			<circle cx="256" cy="202.667" r="10.667"/>
		</g>
	</g>
</g>
<g>
</g>
<g>
</g>
<g>
</g>
<g>
</g>
<g>
</g>
<g>
</g>
<g>
</g>
<g>
</g>
<g>
</g>
<g>
</g>
<g>
</g>
<g>
</g>
<g>
</g>
<g>
</g>
<g>
</g>
</svg>
