<?xml version="1.0" encoding="iso-8859-1"?>
<!-- Generator: Adobe Illustrator 19.0.0, SVG Export Plug-In . SVG Version: 6.00 Build 0)  -->
<svg xmlns="http://www.w3.org/2000/svg" xmlns:xlink="http://www.w3.org/1999/xlink" version="1.1" id="Layer_1" x="0px" y="0px" viewBox="0 0 512 512" style="enable-background:new 0 0 512 512;" xml:space="preserve">
<g>
	<g>
		<g>
			<path d="M437.333,490.667h-11.279l-20.742-352.625c-0.023-0.392-0.217-0.72-0.281-1.099l0.156-0.026l-2.042-12.323     C391.083,52.396,329.229,0,255.958,0c-73.188,0-135.042,52.396-147.104,124.604l-2.042,12.313l0.156,0.026     c-0.064,0.379-0.258,0.707-0.281,1.099L85.945,490.667H74.667c-5.896,0-10.667,4.771-10.667,10.667     C64,507.229,68.771,512,74.667,512H96h320h21.333c5.896,0,10.667-4.771,10.667-10.667     C448,495.438,443.229,490.667,437.333,490.667z M256.042,21.333c62.672,0,115.659,44.859,126.035,106.667H129.926     C140.307,66.185,193.29,21.333,256.042,21.333z M107.313,490.667l20.083-341.333h257.208l20.083,341.333H107.313z"/>
			<path d="M195.125,210.208c2.083,2.083,4.813,3.125,7.542,3.125c2.729,0,5.458-1.042,7.542-3.125l21.333-21.333     c4.167-4.167,4.167-10.917,0-15.083c-4.167-4.167-10.917-4.167-15.083,0l-13.792,13.792l-13.792-13.792     c-4.167-4.167-10.917-4.167-15.083,0c-4.167,4.167-4.167,10.917,0,15.083L195.125,210.208z"/>
			<path d="M301.792,210.208c2.083,2.083,4.813,3.125,7.542,3.125c2.729,0,5.458-1.042,7.542-3.125l21.333-21.333     c4.167-4.167,4.167-10.917,0-15.083c-4.167-4.167-10.917-4.167-15.083,0l-13.792,13.792l-13.792-13.792     c-4.167-4.167-10.917-4.167-15.083,0c-4.167,4.167-4.167,10.917,0,15.083L301.792,210.208z"/>
			<path d="M152.458,274.208c2.083,2.083,4.813,3.125,7.542,3.125s5.458-1.042,7.542-3.125l21.333-21.333     c4.167-4.167,4.167-10.917,0-15.083c-4.167-4.167-10.917-4.167-15.083,0L160,251.583l-13.792-13.792     c-4.167-4.167-10.917-4.167-15.083,0c-4.167,4.167-4.167,10.917,0,15.083L152.458,274.208z"/>
			<path d="M237.792,252.875l21.333,21.333c2.083,2.083,4.813,3.125,7.542,3.125c2.729,0,5.458-1.042,7.542-3.125l21.333-21.333     c4.167-4.167,4.167-10.917,0-15.083c-4.167-4.167-10.917-4.167-15.083,0l-13.792,13.792l-13.792-13.792     c-4.167-4.167-10.917-4.167-15.083,0C233.625,241.958,233.625,248.708,237.792,252.875z"/>
			<path d="M365.792,237.792L352,251.583l-13.792-13.792c-4.167-4.167-10.917-4.167-15.083,0c-4.167,4.167-4.167,10.917,0,15.083     l21.333,21.333c2.083,2.083,4.813,3.125,7.542,3.125c2.729,0,5.458-1.042,7.542-3.125l21.333-21.333     c4.167-4.167,4.167-10.917,0-15.083C376.708,233.625,369.958,233.625,365.792,237.792z"/>
			<path d="M216.458,301.792l-13.792,13.792l-13.792-13.792c-4.167-4.167-10.917-4.167-15.083,0c-4.167,4.167-4.167,10.917,0,15.083     l21.333,21.333c2.083,2.083,4.813,3.125,7.542,3.125c2.729,0,5.458-1.042,7.542-3.125l21.333-21.333     c4.167-4.167,4.167-10.917,0-15.083C227.375,297.625,220.625,297.625,216.458,301.792z"/>
			<path d="M295.542,301.792c-4.167-4.167-10.917-4.167-15.083,0c-4.167,4.167-4.167,10.917,0,15.083l21.333,21.333     c2.083,2.083,4.813,3.125,7.542,3.125c2.729,0,5.458-1.042,7.542-3.125l21.333-21.333c4.167-4.167,4.167-10.917,0-15.083     c-4.167-4.167-10.917-4.167-15.083,0l-13.792,13.792L295.542,301.792z"/>
			<path d="M188.875,365.792c-4.167-4.167-10.917-4.167-15.083,0L160,379.583l-13.792-13.792c-4.167-4.167-10.917-4.167-15.083,0     s-4.167,10.917,0,15.083l21.333,21.333c2.083,2.083,4.813,3.125,7.542,3.125s5.458-1.042,7.542-3.125l21.333-21.333     C193.042,376.708,193.042,369.958,188.875,365.792z"/>
			<path d="M295.542,365.792c-4.167-4.167-10.917-4.167-15.083,0l-13.792,13.792l-13.792-13.792c-4.167-4.167-10.917-4.167-15.083,0     c-4.167,4.167-4.167,10.917,0,15.083l21.333,21.333c2.083,2.083,4.813,3.125,7.542,3.125c2.729,0,5.458-1.042,7.542-3.125     l21.333-21.333C299.708,376.708,299.708,369.958,295.542,365.792z"/>
			<path d="M365.792,365.792L352,379.583l-13.792-13.792c-4.167-4.167-10.917-4.167-15.083,0s-4.167,10.917,0,15.083l21.333,21.333     c2.083,2.083,4.813,3.125,7.542,3.125c2.729,0,5.458-1.042,7.542-3.125l21.333-21.333c4.167-4.167,4.167-10.917,0-15.083     C376.708,361.625,369.958,361.625,365.792,365.792z"/>
			<path d="M216.458,429.792l-13.792,13.792l-13.792-13.792c-4.167-4.167-10.917-4.167-15.083,0c-4.167,4.167-4.167,10.917,0,15.083     l21.333,21.333c2.083,2.083,4.813,3.125,7.542,3.125c2.729,0,5.458-1.042,7.542-3.125l21.333-21.333     c4.167-4.167,4.167-10.917,0-15.083C227.375,425.625,220.625,425.625,216.458,429.792z"/>
			<path d="M323.125,429.792l-13.792,13.792l-13.792-13.792c-4.167-4.167-10.917-4.167-15.083,0c-4.167,4.167-4.167,10.917,0,15.083     l21.333,21.333c2.083,2.083,4.813,3.125,7.542,3.125c2.729,0,5.458-1.042,7.542-3.125l21.333-21.333     c4.167-4.167,4.167-10.917,0-15.083C334.042,425.625,327.292,425.625,323.125,429.792z"/>
		</g>
	</g>
</g>
<g>
</g>
<g>
</g>
<g>
</g>
<g>
</g>
<g>
</g>
<g>
</g>
<g>
</g>
<g>
</g>
<g>
</g>
<g>
</g>
<g>
</g>
<g>
</g>
<g>
</g>
<g>
</g>
<g>
</g>
</svg>
