<?xml version="1.0" encoding="iso-8859-1"?>
<!-- Generator: Adobe Illustrator 19.0.0, SVG Export Plug-In . SVG Version: 6.00 Build 0)  -->
<svg xmlns="http://www.w3.org/2000/svg" xmlns:xlink="http://www.w3.org/1999/xlink" version="1.1" id="Layer_1" x="0px" y="0px" viewBox="0 0 512 512" style="enable-background:new 0 0 512 512;" xml:space="preserve">
<g>
	<g>
		<g>
			<path d="M426.667,0H85.333C61.802,0,42.667,19.135,42.667,42.667v426.667c0,23.531,19.135,42.667,42.667,42.667h341.333     c23.531,0,42.667-19.135,42.667-42.667V42.667C469.333,19.135,450.198,0,426.667,0z M192,490.667H85.333     c-11.76,0-21.333-9.573-21.333-21.333V42.667c0-11.76,9.573-21.333,21.333-21.333H192V490.667z M448,469.333     c0,11.76-9.573,21.333-21.333,21.333H213.333V21.333h213.333c11.76,0,21.333,9.573,21.333,21.333V469.333z"/>
			<path d="M160,362.667c5.896,0,10.667-4.771,10.667-10.667V160c0-5.896-4.771-10.667-10.667-10.667s-10.667,4.771-10.667,10.667     v192C149.333,357.896,154.104,362.667,160,362.667z"/>
			<path d="M245.333,149.333c-5.896,0-10.667,4.771-10.667,10.667v192c0,5.896,4.771,10.667,10.667,10.667     c5.896,0,10.667-4.771,10.667-10.667V160C256,154.104,251.229,149.333,245.333,149.333z"/>
			<path d="M394.667,192h-85.333c-5.896,0-10.667,4.771-10.667,10.667v106.667c0,5.896,4.771,10.667,10.667,10.667h85.333     c5.896,0,10.667-4.771,10.667-10.667V202.667C405.333,196.771,400.563,192,394.667,192z M384,298.667h-64v-85.333h21.333V224     c0,5.896,4.771,10.667,10.667,10.667c5.896,0,10.667-4.771,10.667-10.667v-10.667H384V298.667z"/>
		</g>
	</g>
</g>
<g>
</g>
<g>
</g>
<g>
</g>
<g>
</g>
<g>
</g>
<g>
</g>
<g>
</g>
<g>
</g>
<g>
</g>
<g>
</g>
<g>
</g>
<g>
</g>
<g>
</g>
<g>
</g>
<g>
</g>
</svg>
