<?xml version="1.0" encoding="iso-8859-1"?>
<!-- Generator: Adobe Illustrator 19.0.0, SVG Export Plug-In . SVG Version: 6.00 Build 0)  -->
<svg xmlns="http://www.w3.org/2000/svg" xmlns:xlink="http://www.w3.org/1999/xlink" version="1.1" id="Layer_1" x="0px" y="0px" viewBox="0 0 512 512" style="enable-background:new 0 0 512 512;" xml:space="preserve">
<g>
	<g>
		<path d="M319.95,225.641l-9.939-215.454c-0.25-5.885-5.459-10.541-11.148-10.166c-5.876,0.271-10.419,5.26-10.148,11.146    l7.106,154.022c-3.044,2.965-7.866,5.486-13.148,5.486c-8.523,0-16.003-4.979-16.003-10.666V10.677    c0-5.896-4.772-10.666-10.669-10.666s-10.669,4.771-10.669,10.666v149.33c0,5.687-7.481,10.666-16.003,10.666    c-5.232,0-10.066-2.583-13.142-5.622l7.099-153.885c0.271-5.885-4.272-10.875-10.148-11.146    c-5.876-0.313-10.898,4.281-11.148,10.166l-9.939,215.443c-0.75,15.593,6.981,30.656,20.171,39.301    c6.876,4.5,10.919,12.344,10.565,20.458l-8.481,183.559c-0.521,11.26,3.501,21.958,11.336,30.145    c7.835,8.208,18.858,12.906,30.443,12.906c11.419,0,22.442-4.698,30.277-12.906c7.835-8.187,11.856-18.885,11.336-30.145    l-8.481-183.548c-0.354-8.125,3.688-15.968,10.585-20.479C312.969,256.287,320.7,241.224,319.95,225.641z M288.11,247.078    c-13.169,8.614-20.921,23.666-20.191,39.291l8.481,183.559c0.229,5.375-1.709,10.5-5.459,14.437c-7.647,8.01-22.025,8.25-29.881,0    c-3.751-3.937-5.689-9.062-5.459-14.437l8.481-183.569c0.729-15.614-7.022-30.666-20.171-39.27    c-6.897-4.521-10.94-12.354-10.565-20.468l1.736-37.632c4.567,1.78,9.351,3.018,14.246,3.018c10.44,0,19.879-3.687,26.672-9.625    c6.793,5.937,16.232,9.625,26.672,9.625c4.905,0,9.685-1.221,14.248-2.975l1.735,37.599    C299.029,234.735,294.987,242.568,288.11,247.078z"/>
	</g>
</g>
<g>
</g>
<g>
</g>
<g>
</g>
<g>
</g>
<g>
</g>
<g>
</g>
<g>
</g>
<g>
</g>
<g>
</g>
<g>
</g>
<g>
</g>
<g>
</g>
<g>
</g>
<g>
</g>
<g>
</g>
</svg>
