<?xml version="1.0" encoding="iso-8859-1"?>
<!-- Generator: Adobe Illustrator 19.0.0, SVG Export Plug-In . SVG Version: 6.00 Build 0)  -->
<svg xmlns="http://www.w3.org/2000/svg" xmlns:xlink="http://www.w3.org/1999/xlink" version="1.1" id="Layer_1" x="0px" y="0px" viewBox="0 0 469.333 469.333" style="enable-background:new 0 0 469.333 469.333;" xml:space="preserve">
<g>
	<g>
		<g>
			<path d="M426.667,0h-384C19.146,0,0,19.135,0,42.667v384c0,23.531,19.146,42.667,42.667,42.667h384     c23.521,0,42.667-19.135,42.667-42.667v-384C469.333,19.135,450.188,0,426.667,0z M448,426.667     c0,11.76-9.563,21.333-21.333,21.333h-384c-11.771,0-21.333-9.573-21.333-21.333v-384c0-11.76,9.563-21.333,21.333-21.333h384     c11.771,0,21.333,9.573,21.333,21.333V426.667z"/>
			<path d="M341.333,64c-35.292,0-64,28.708-64,64c0,35.292,28.708,64,64,64s64-28.708,64-64C405.333,92.708,376.625,64,341.333,64z      M341.333,170.667c-23.521,0-42.667-19.135-42.667-42.667s19.146-42.667,42.667-42.667C364.854,85.333,384,104.469,384,128     S364.854,170.667,341.333,170.667z"/>
			<path d="M341.333,234.667c-35.292,0-64,28.708-64,64s28.708,64,64,64s64-28.708,64-64S376.625,234.667,341.333,234.667z      M341.333,341.333c-23.521,0-42.667-19.135-42.667-42.667S317.812,256,341.333,256C364.854,256,384,275.135,384,298.667     S364.854,341.333,341.333,341.333z"/>
			<path d="M192,298.667c0-35.292-28.708-64-64-64c-35.292,0-64,28.708-64,64s28.708,64,64,64     C163.292,362.667,192,333.958,192,298.667z M128,341.333c-23.521,0-42.667-19.135-42.667-42.667S104.479,256,128,256     c23.521,0,42.667,19.135,42.667,42.667S151.521,341.333,128,341.333z"/>
			<path d="M192,64h-64c-35.292,0-64,28.708-64,64c0,35.292,28.708,64,64,64h64c35.292,0,64-28.708,64-64     C256,92.708,227.292,64,192,64z M128,170.667c-23.521,0-42.667-19.135-42.667-42.667S104.479,85.333,128,85.333     c23.521,0,42.667,19.135,42.667,42.667S151.521,170.667,128,170.667z M192,170.667h-16.646C185.589,159.318,192,144.451,192,128     c0-16.451-6.411-31.318-16.646-42.667H192c23.521,0,42.667,19.135,42.667,42.667S215.521,170.667,192,170.667z"/>
			<path d="M362.667,384c-11.771,0-21.333,9.573-21.333,21.333s9.563,21.333,21.333,21.333c11.771,0,21.333-9.573,21.333-21.333     S374.438,384,362.667,384z"/>
			<path d="M277.333,384C265.562,384,256,393.573,256,405.333s9.562,21.333,21.333,21.333c11.771,0,21.333-9.573,21.333-21.333     S289.104,384,277.333,384z"/>
			<path d="M192,384c-11.771,0-21.333,9.573-21.333,21.333s9.563,21.333,21.333,21.333c11.771,0,21.333-9.573,21.333-21.333     S203.771,384,192,384z"/>
			<path d="M106.667,384c-11.771,0-21.333,9.573-21.333,21.333s9.563,21.333,21.333,21.333S128,417.094,128,405.333     S118.437,384,106.667,384z"/>
		</g>
	</g>
</g>
<g>
</g>
<g>
</g>
<g>
</g>
<g>
</g>
<g>
</g>
<g>
</g>
<g>
</g>
<g>
</g>
<g>
</g>
<g>
</g>
<g>
</g>
<g>
</g>
<g>
</g>
<g>
</g>
<g>
</g>
</svg>
