<?xml version="1.0" encoding="iso-8859-1"?>
<!-- Generator: Adobe Illustrator 19.0.0, SVG Export Plug-In . SVG Version: 6.00 Build 0)  -->
<svg xmlns="http://www.w3.org/2000/svg" xmlns:xlink="http://www.w3.org/1999/xlink" version="1.1" id="Layer_1" x="0px" y="0px" viewBox="0 0 512 512" style="enable-background:new 0 0 512 512;" xml:space="preserve">
<g>
	<g>
		<g>
			<path d="M469.333,64H42.667C19.146,64,0,83.135,0,106.667v298.667C0,428.865,19.146,448,42.667,448h426.667     C492.854,448,512,428.865,512,405.333V106.667C512,83.135,492.854,64,469.333,64z M490.667,405.333     c0,11.76-9.563,21.333-21.333,21.333H42.667c-11.771,0-21.333-9.573-21.333-21.333V106.667c0-11.76,9.563-21.333,21.333-21.333     h426.667c11.771,0,21.333,9.573,21.333,21.333V405.333z"/>
			<path d="M373.333,149.333c-17.646,0-32-14.354-32-32c0-5.896-4.771-10.667-10.667-10.667H96c-5.896,0-10.667,4.771-10.667,10.667     c0,17.646-14.354,32-32,32c-5.896,0-10.667,4.771-10.667,10.667v192c0,5.896,4.771,10.667,10.667,10.667     c17.646,0,32,14.354,32,32c0,5.896,4.771,10.667,10.667,10.667h234.667c5.896,0,10.667-4.771,10.667-10.667     c0-17.646,14.354-32,32-32c5.896,0,10.667-4.771,10.667-10.667V160C384,154.104,379.229,149.333,373.333,149.333z      M362.667,342.406c-20.875,4.25-37.333,20.729-41.604,41.594H105.604c-4.271-20.865-20.729-37.344-41.604-41.594V169.594     c20.875-4.25,37.333-20.729,41.604-41.594h215.458c4.271,20.865,20.729,37.344,41.604,41.594V342.406z"/>
			<path d="M437.333,170.667c-17.646,0-32,14.354-32,32v106.667c0,17.646,14.354,32,32,32c17.646,0,32-14.354,32-32V202.667     C469.333,185.021,454.979,170.667,437.333,170.667z M448,309.333c0,5.885-4.792,10.667-10.667,10.667     s-10.667-4.781-10.667-10.667V202.667c0-5.885,4.792-10.667,10.667-10.667S448,196.781,448,202.667V309.333z"/>
		</g>
	</g>
</g>
<g>
</g>
<g>
</g>
<g>
</g>
<g>
</g>
<g>
</g>
<g>
</g>
<g>
</g>
<g>
</g>
<g>
</g>
<g>
</g>
<g>
</g>
<g>
</g>
<g>
</g>
<g>
</g>
<g>
</g>
</svg>
