<?xml version="1.0" encoding="iso-8859-1"?>
<!-- Generator: Adobe Illustrator 19.0.0, SVG Export Plug-In . SVG Version: 6.00 Build 0)  -->
<svg xmlns="http://www.w3.org/2000/svg" xmlns:xlink="http://www.w3.org/1999/xlink" version="1.1" id="Layer_1" x="0px" y="0px" viewBox="0 0 511.99 511.99" style="enable-background:new 0 0 511.99 511.99;" xml:space="preserve">
<g>
	<g>
		<g>
			<circle cx="255.995" cy="447.995" r="10.667"/>
			<path d="M319.995,287.99V149.323c0-124.635-114.094-148.896-115.24-149.125c-3.135-0.604-6.385,0.187-8.854,2.208     c-2.469,2.031-3.906,5.052-3.906,8.25v320v114.292c0,34.188,25.229,63.49,57.438,66.719c2.146,0.208,4.281,0.323,6.417,0.323     c15.865,0,31.292-5.865,43.083-16.542c13.385-12.115,21.063-29.417,21.063-47.458c0-14.208-4.635-27.677-13.406-38.948     c-2.49-3.198-4.677-5.219-7.74-7.844c-0.01-0.021-0.188-0.625-0.188-2.438v-68.376     C311.535,320.638,319.995,305.344,319.995,287.99z M284.62,479.635c-9.042,8.188-20.75,12.052-33.063,10.802     c-21.438-2.146-38.229-22.125-38.229-45.49V341.323h53.333c3.652,0,7.219-0.376,10.667-1.079v58.517     c0,10.667,3.802,14.99,8.396,19.167c1.125,1.031,2.5,2.25,4.031,4.219c5.823,7.49,8.906,16.427,8.906,25.844     C298.661,460.021,293.547,471.552,284.62,479.635z M266.661,319.99h-53.333V24.802c26.646,9.406,85.333,39.729,85.333,124.521     V287.99C298.661,305.635,284.307,319.99,266.661,319.99z"/>
			<path d="M253.557,77.208c-3.75-4.51-10.458-5.177-15.021-1.438c-4.542,3.75-5.188,10.469-1.438,15.021     c6.813,8.25,11.854,17.948,14.979,28.792c1.344,4.677,5.615,7.719,10.24,7.719c0.979,0,1.979-0.135,2.958-0.417     c5.667-1.635,8.938-7.542,7.302-13.198C268.641,100.01,262.234,87.74,253.557,77.208z"/>
		</g>
	</g>
</g>
<g>
</g>
<g>
</g>
<g>
</g>
<g>
</g>
<g>
</g>
<g>
</g>
<g>
</g>
<g>
</g>
<g>
</g>
<g>
</g>
<g>
</g>
<g>
</g>
<g>
</g>
<g>
</g>
<g>
</g>
</svg>
