<?xml version="1.0" encoding="iso-8859-1"?>
<!-- Generator: Adobe Illustrator 19.0.0, SVG Export Plug-In . SVG Version: 6.00 Build 0)  -->
<svg xmlns="http://www.w3.org/2000/svg" xmlns:xlink="http://www.w3.org/1999/xlink" version="1.1" id="Layer_1" x="0px" y="0px" viewBox="0 0 469.333 469.333" style="enable-background:new 0 0 469.333 469.333;" xml:space="preserve">
<g>
	<g>
		<path d="M437.333,106.667H288.586l30.872-92.625c1.083-3.25,0.542-6.833-1.479-9.615c-2-2.781-5.208-4.427-8.646-4.427H32    c-3.438,0-6.646,1.646-8.646,4.427c-2.021,2.781-2.563,6.365-1.479,9.615l33.174,99.533c-7.479,5.862-12.383,14.874-12.383,25.092    c0,10.87,5.473,20.461,13.78,26.246L4.875,354C1.646,365.917,0,378.188,0,390.479v36.188c0,23.531,19.146,42.667,42.667,42.667    h256c23.521,0,42.667-19.135,42.667-42.667v-36.188c0-12.292-1.646-24.563-4.875-36.49l-50.001-183.323h150.876    c17.646,0,32-14.354,32-32S454.979,106.667,437.333,106.667z M315.875,359.583c2.729,10.094,4.125,20.49,4.125,30.896v36.188    c0,11.76-9.563,21.333-21.333,21.333h-256c-11.771,0-21.333-9.573-21.333-21.333v-36.188c0-10.406,1.396-20.802,4.125-30.885    l51.53-188.927h187.357L315.875,359.583z M64,138.667C64,132.781,68.792,128,74.667,128h192c5.875,0,10.667,4.781,10.667,10.667    s-4.792,10.667-10.667,10.667h-192C68.792,149.333,64,144.552,64,138.667z M266.087,106.667H75.246L46.792,21.333h247.75    L266.087,106.667z M437.333,149.333H296.702c1.195-3.353,1.965-6.909,1.965-10.667s-0.77-7.314-1.965-10.667h140.632    c5.875,0,10.667,4.781,10.667,10.667S443.208,149.333,437.333,149.333z"/>
	</g>
</g>
<g>
</g>
<g>
</g>
<g>
</g>
<g>
</g>
<g>
</g>
<g>
</g>
<g>
</g>
<g>
</g>
<g>
</g>
<g>
</g>
<g>
</g>
<g>
</g>
<g>
</g>
<g>
</g>
<g>
</g>
</svg>
