<?xml version="1.0" encoding="iso-8859-1"?>
<!-- Generator: Adobe Illustrator 19.0.0, SVG Export Plug-In . SVG Version: 6.00 Build 0)  -->
<svg xmlns="http://www.w3.org/2000/svg" xmlns:xlink="http://www.w3.org/1999/xlink" version="1.1" id="Layer_1" x="0px" y="0px" viewBox="0 0 512 512" style="enable-background:new 0 0 512 512;" xml:space="preserve">
<g>
	<g>
		<g>
			<path d="M317.447,266.271c3.406-4,3.406-9.875-0.01-13.865l-9.448-11.042c-3.448-4.021-3.438-9.854,0-13.885l9.438-11.01     c3.427-3.99,3.427-9.875,0.01-13.865l-9.458-11.073c-3.438-4.01-3.438-9.844,0-13.865l9.448-11.021     c3.427-3.99,3.427-9.896,0-13.885l-9.417-10.969c-3.458-4.031-3.458-9.875-0.021-13.896l9.438-11.01     c3.438-4,3.427-9.896-0.01-13.896l-9.375-10.906c-3.458-4.031-3.458-9.885-0.01-13.906l9.385-10.917     c3.438-4,3.448-9.906,0.01-13.906l-9.396-10.958c-3.458-4.031-3.448-9.875,0.021-13.896l9.365-10.865     c2.719-3.167,3.354-7.625,1.615-11.417S313.499,0,309.332,0h-0.01L234.77,0.083c-0.031,0-0.063,0-0.104,0     c-11.375,0-22.083,4.427-30.135,12.458c-8.083,8.063-12.531,18.792-12.531,30.208v266.583v135.625     c0,34.188,25.229,63.49,57.438,66.719c2.146,0.208,4.281,0.323,6.417,0.323c15.865,0,31.292-5.865,43.083-16.542     c13.385-12.115,21.063-29.417,21.063-47.458c0-14.208-4.635-27.677-13.406-38.948c-3.615-4.646-7.927-12.063-7.927-20.948V320     h10.667c4.156,0,7.948-2.417,9.688-6.198c1.74-3.781,1.125-8.229-1.573-11.396l-9.51-11.146c-3.427-4.01-3.427-9.833,0-13.844     L317.447,266.271z M213.332,42.75c0-5.708,2.229-11.073,6.26-15.104c4.042-4.031,9.573-5.979,15.167-6.229l52.615-0.063     c-5.583,11.271-4.094,24.958,4.469,34.938l3.427,4l-3.417,3.979c-10.365,12.083-10.365,29.625,0.01,41.719l3.406,3.969     l-3.479,4.063c-10.333,12.063-10.323,29.573,0.021,41.656l3.469,4.042l-3.5,4.073c-10.333,12.063-10.333,29.573,0,41.615     l3.51,4.115l-3.5,4.083c-10.333,12.063-10.333,29.573-0.01,41.635l3.521,4.115l-3.594,4.208     c-8.552,10.021-9.99,23.823-4.292,35.104h-74.083V42.75z M284.624,479.646c-9.042,8.188-20.667,12.021-33.063,10.802     c-21.438-2.146-38.229-22.125-38.229-45.49V320h64v68.104c0,11.823,4.292,23.594,12.427,34.052     c5.823,7.49,8.906,16.427,8.906,25.844C298.666,460.031,293.551,471.563,284.624,479.646z"/>
			<circle cx="256" cy="448" r="10.667"/>
		</g>
	</g>
</g>
<g>
</g>
<g>
</g>
<g>
</g>
<g>
</g>
<g>
</g>
<g>
</g>
<g>
</g>
<g>
</g>
<g>
</g>
<g>
</g>
<g>
</g>
<g>
</g>
<g>
</g>
<g>
</g>
<g>
</g>
</svg>
