<?xml version="1.0" encoding="iso-8859-1"?>
<!-- Generator: Adobe Illustrator 19.0.0, SVG Export Plug-In . SVG Version: 6.00 Build 0)  -->
<svg xmlns="http://www.w3.org/2000/svg" xmlns:xlink="http://www.w3.org/1999/xlink" version="1.1" id="Layer_1" x="0px" y="0px" viewBox="0 0 512 512" style="enable-background:new 0 0 512 512;" xml:space="preserve">
<g>
	<g>
		<g>
			<path d="M224,96h-42.667c-5.896,0-10.667,4.771-10.667,10.667c0,5.896,4.771,10.667,10.667,10.667H224     c5.896,0,10.667-4.771,10.667-10.667C234.667,100.771,229.896,96,224,96z"/>
			<path d="M181.333,160h21.333c5.896,0,10.667-4.771,10.667-10.667c0-5.896-4.771-10.667-10.667-10.667h-21.333     c-5.896,0-10.667,4.771-10.667,10.667C170.667,155.229,175.438,160,181.333,160z"/>
			<path d="M224,181.333h-42.667c-5.896,0-10.667,4.771-10.667,10.667s4.771,10.667,10.667,10.667H224     c5.896,0,10.667-4.771,10.667-10.667S229.896,181.333,224,181.333z"/>
			<path d="M224,266.667h-42.667c-5.896,0-10.667,4.771-10.667,10.667c0,5.896,4.771,10.667,10.667,10.667H224     c5.896,0,10.667-4.771,10.667-10.667C234.667,271.438,229.896,266.667,224,266.667z"/>
			<path d="M181.333,245.333h21.333c5.896,0,10.667-4.771,10.667-10.667c0-5.896-4.771-10.667-10.667-10.667h-21.333     c-5.896,0-10.667,4.771-10.667,10.667C170.667,240.563,175.438,245.333,181.333,245.333z"/>
			<path d="M224,352c-35.292,0-64,28.708-64,64c0,35.292,28.708,64,64,64s64-28.708,64-64C288,380.708,259.292,352,224,352z      M224,458.667c-23.531,0-42.667-19.135-42.667-42.667s19.135-42.667,42.667-42.667s42.667,19.135,42.667,42.667     S247.531,458.667,224,458.667z"/>
			<path d="M362.667,64h-21.333v-5.333c0-27.824-61.831-34.908-96.126-36.708c0.007-0.22,0.126-0.404,0.126-0.625     C245.333,9.573,235.76,0,224,0s-21.333,9.573-21.333,21.333c0,0.221,0.12,0.405,0.126,0.625     c-34.296,1.801-96.126,8.884-96.126,36.708V262.25c0,12.573,4.896,24.396,13.792,33.292c4.865,4.865,7.542,11.333,7.542,18.208     v9.294c-13.169,5.206-23.372,16.742-26.271,31.258l-14.115,70.583c-1.51,7.583-2.281,15.323-2.281,23.01v21.438     C85.333,492.865,104.469,512,128,512h192c23.531,0,42.667-19.135,42.667-42.667v-21.438c0-7.688-0.771-15.427-2.281-23.01     l-14.115-70.583c-2.898-14.516-13.102-26.052-26.271-31.258v-9.294c0-3.9,1.064-7.561,2.698-10.98l76.688-53.665     c17.083-11.979,27.281-31.573,27.281-52.427V128C426.667,92.708,397.958,64,362.667,64z M325.354,358.49l14.115,70.583     c1.24,6.198,1.865,12.531,1.865,18.823v21.438c0,11.76-9.573,21.333-21.333,21.333H128c-11.76,0-21.333-9.573-21.333-21.333     v-21.438c0-6.292,0.625-12.625,1.865-18.823l14.115-70.583c1.99-9.938,10.781-17.156,20.917-17.156h160.875     C314.573,341.333,323.365,348.552,325.354,358.49z M320,262.25c0,6.875-2.677,13.344-7.542,18.208     c-8.896,8.896-13.792,20.719-13.792,33.292V320H149.333v-6.25c0-12.573-4.896-24.396-13.792-33.292     c-4.865-4.865-7.542-11.333-7.542-18.208V64.865l-0.333-4.698c3.99-6.281,39.604-17.5,96.333-17.5s92.344,11.219,96,16V262.25z      M341.333,128h21.333l0.01,68.667l-21.344,14.94V128z M405.333,196.677c0,13.906-6.802,26.969-18.188,34.948l-45.964,32.169     c0.017-0.522,0.151-1.02,0.151-1.544v-24.603l33.573-23.501c5.698-3.979,9.094-10.51,9.094-17.469V128     c0-11.76-9.573-21.333-21.333-21.333h-21.333V85.333h21.333c23.531,0,42.667,19.135,42.667,42.667V196.677z"/>
		</g>
	</g>
</g>
<g>
</g>
<g>
</g>
<g>
</g>
<g>
</g>
<g>
</g>
<g>
</g>
<g>
</g>
<g>
</g>
<g>
</g>
<g>
</g>
<g>
</g>
<g>
</g>
<g>
</g>
<g>
</g>
<g>
</g>
</svg>
