<?xml version="1.0" encoding="iso-8859-1"?>
<!-- Generator: Adobe Illustrator 19.0.0, SVG Export Plug-In . SVG Version: 6.00 Build 0)  -->
<svg xmlns="http://www.w3.org/2000/svg" xmlns:xlink="http://www.w3.org/1999/xlink" version="1.1" id="Layer_1" x="0px" y="0px" viewBox="0 0 512 512" style="enable-background:new 0 0 512 512;" xml:space="preserve">
<g>
	<g>
		<g>
			<path d="M309.333,234.667H202.667c-5.896,0-10.667,4.771-10.667,10.667v53.333c0,23.531,19.135,42.667,42.667,42.667h42.667     c23.531,0,42.667-19.135,42.667-42.667v-53.333C320,239.438,315.229,234.667,309.333,234.667z M298.667,298.667     c0,11.76-9.573,21.333-21.333,21.333h-42.667c-11.76,0-21.333-9.573-21.333-21.333V256h85.333V298.667z"/>
			<path d="M458.667,149.333c-5.896,0-10.667,4.771-10.667,10.667c0,32.729-13.781,68.271-44.583,73.896l-0.009,0.004l-0.001-0.004     c-2.781,0.51-5.698,0.771-8.74,0.771c-33.042,0-53.333-55.917-53.333-96V85.333C341.333,38.281,303.052,0,256,0     s-85.333,38.281-85.333,85.333v53.333c0,40.083-20.292,96-53.333,96c-6.198,0-12.021-1.094-17.313-3.26     C78.135,222.469,64,194.438,64,160c0-5.896-4.771-10.667-10.667-10.667c-5.896,0-10.667,4.771-10.667,10.667     c0,43.146,19.344,78.927,49.292,91.156c4.664,1.902,9.62,3.069,14.708,3.852v214.326c0,23.531,19.135,42.667,42.667,42.667     h213.333c23.531,0,42.667-19.135,42.667-42.667V255.051c0.512,0,1.033-0.061,1.553-0.142c0.12-0.021,0.255-0.012,0.374-0.034     v-0.003c42.876-7.831,62.073-53.293,62.073-94.872C469.333,154.104,464.563,149.333,458.667,149.333z M192,85.333     c0-35.292,28.708-64,64-64s64,28.708,64,64V128H192V85.333z M384,469.333c0,11.76-9.573,21.333-21.333,21.333H149.333     c-11.76,0-21.333-9.573-21.333-21.333V254.927c40.167-8.271,60.646-62.75,63.625-105.594h128.75     c2.979,42.844,23.458,97.323,63.625,105.594V469.333z"/>
		</g>
	</g>
</g>
<g>
</g>
<g>
</g>
<g>
</g>
<g>
</g>
<g>
</g>
<g>
</g>
<g>
</g>
<g>
</g>
<g>
</g>
<g>
</g>
<g>
</g>
<g>
</g>
<g>
</g>
<g>
</g>
<g>
</g>
</svg>
